<svg width="1032" height="926" viewBox="0 0 1032 926" fill="none" xmlns="http://www.w3.org/2000/svg">
<g clip-path="url(#clip0_15106_102)">
<path d="M418.18 550.4C421.49 549.74 425.27 549.3 427.99 548.44C436.45 545.77 447.39 541.97 455.64 537.31C459.02 535.397 462.32 533.357 465.54 531.19C471.33 527.29 475.89 521.36 480.62 516.15C488.73 507.24 493.99 496.02 497.99 484.78C499.73 479.893 501.35 473.44 502.85 465.42C505.02 453.79 506.97 445.1 506.54 436.14C506.27 430.67 503.17 422.19 499.86 417.77C496.39 413.13 492.91 407.88 488.94 403.69C487.22 401.883 485.923 400.783 485.05 400.39C477.13 396.877 469.016 393.907 460.71 391.48C455.523 389.96 449.803 388.863 443.55 388.19C422.716 385.943 401.826 385.07 380.88 385.57C375.353 385.703 369.29 386.167 362.69 386.96C356.656 387.68 350.62 388.41 344.58 389.15C341.453 389.537 338.653 390.247 336.18 391.28C327.21 395.05 316.19 400.64 310.74 408.96C304.11 419.09 299.04 431.97 299.97 444.22C300.616 452.693 301.3 461.167 302.02 469.64C302.326 473.327 302.976 476.843 303.97 480.19C307.19 491.05 310.34 499.853 313.42 506.6C319.24 519.333 328.366 529.907 340.8 538.32C345.4 541.43 348.02 543.33 352.36 544.67C360.37 547.13 369.41 550.8 377.77 551.27C391.11 552.01 405 553.05 418.18 550.4Z" stroke="#332F70" stroke-width="2"/>
<path d="M785.329 402.12C779.709 397.43 772.789 394.15 766.109 391.18C763.916 390.2 761.599 389.553 759.159 389.24C748.269 387.86 737.609 386.34 726.559 386.13C710.649 385.83 694.359 384.94 678.609 386.24C666.419 387.24 653.809 387.96 642.379 391.18C634.593 393.38 626.983 396.097 619.549 399.33C612.389 402.45 607.559 410.79 602.359 417.85C599.819 421.3 598.759 425.01 597.309 428.96C595.559 433.73 595.269 439.28 595.849 443.75C596.489 448.59 597.729 455.917 599.569 465.73C601.063 473.677 602.703 480.127 604.489 485.08C607.009 492.073 610.109 498.807 613.789 505.28C617.909 512.54 623.839 518.59 629.629 524.8C637.339 533.07 649.129 539.3 659.679 543.15C665.669 545.33 671.789 547.92 678.059 549.14C684.079 550.31 689.899 551.56 695.929 551.75C705.303 552.043 714.673 551.867 724.039 551.22C727.446 550.98 730.866 550.347 734.299 549.32C743.589 546.55 752.479 544.65 760.749 538.74C767.096 534.2 772.549 529.453 777.109 524.5C780.349 520.98 782.839 516.61 785.479 512.43C787.506 509.217 789.196 505.957 790.549 502.65C793.616 495.183 795.539 489.717 796.319 486.25C799.446 472.35 801.479 458.297 802.419 444.09C802.679 440.183 802.473 436.64 801.799 433.46C799.439 422.31 794.249 409.57 785.329 402.12Z" stroke="#332F70" stroke-width="2"/>
<path d="M303.19 394.825C303.093 393.67 302.541 392.601 301.656 391.853C300.771 391.105 299.625 390.739 298.47 390.836L273.697 392.916C272.542 393.013 271.473 393.565 270.725 394.45C269.977 395.335 269.611 396.482 269.708 397.636L269.73 397.896C269.826 399.05 270.378 400.119 271.264 400.868C272.149 401.616 273.295 401.981 274.45 401.884L299.223 399.804C300.378 399.707 301.447 399.156 302.195 398.27C302.943 397.385 303.309 396.239 303.212 395.084L303.19 394.825Z" stroke="#808080" stroke-width="2"/>
<path d="M832.685 397.51C832.732 396.939 832.666 396.365 832.491 395.82C832.316 395.275 832.035 394.769 831.665 394.332C831.295 393.896 830.842 393.536 830.333 393.275C829.823 393.013 829.268 392.854 828.697 392.807L803.841 390.764C802.688 390.669 801.545 391.036 800.664 391.784C799.782 392.532 799.233 393.599 799.138 394.752L799.115 395.031C799.068 395.601 799.134 396.176 799.309 396.721C799.484 397.266 799.765 397.771 800.135 398.208C800.506 398.645 800.958 399.004 801.468 399.266C801.977 399.528 802.533 399.686 803.103 399.733L827.959 401.777C829.112 401.872 830.255 401.505 831.137 400.757C832.019 400.009 832.567 398.941 832.662 397.789L832.685 397.51Z" stroke="#808080" stroke-width="2"/>
<path d="M985.75 0.869995H897.15C897.001 0.869995 896.88 0.990883 896.88 1.14V87.86C896.88 88.0091 897.001 88.13 897.15 88.13H985.75C985.899 88.13 986.02 88.0091 986.02 87.86V1.14C986.02 0.990883 985.899 0.869995 985.75 0.869995Z" fill="#665EE0"/>
<path d="M192.94 196.27V1.51997C192.94 1.15997 193.12 0.979965 193.48 0.979965L276.21 0.969971C276.544 0.969971 276.71 1.13331 276.71 1.45998V354.95C276.71 355.21 276.577 355.34 276.31 355.34H193.45C193.07 355.34 192.79 355.173 192.61 354.84L85.7102 161.62C85.689 161.572 85.6515 161.534 85.6045 161.511C85.5575 161.489 85.504 161.483 85.4535 161.497C85.4031 161.51 85.359 161.541 85.3291 161.583C85.2991 161.626 85.2854 161.678 85.2902 161.73V354.77C85.2902 355.15 85.1002 355.34 84.7202 355.34H2.29022C1.92356 355.34 1.74023 355.157 1.74023 354.79V1.48997C1.74023 1.14331 1.91356 0.969971 2.26022 0.969971L84.2002 0.979965C84.3604 0.979771 84.5174 1.02241 84.6547 1.10338C84.792 1.18435 84.9045 1.30064 84.9802 1.43997L192.6 196.36C192.619 196.396 192.65 196.426 192.687 196.442C192.725 196.459 192.767 196.462 192.806 196.452C192.846 196.441 192.881 196.418 192.905 196.384C192.93 196.351 192.942 196.311 192.94 196.27Z" fill="black"/>
<path d="M425.65 139.02H536.21C536.264 139.02 536.317 139.031 536.367 139.051C536.417 139.072 536.462 139.102 536.5 139.14C536.538 139.178 536.568 139.223 536.589 139.273C536.61 139.323 536.62 139.376 536.62 139.43V210.26C536.62 210.369 536.577 210.473 536.5 210.55C536.423 210.627 536.319 210.67 536.21 210.67L425.65 210.64C425.541 210.64 425.437 210.683 425.36 210.76C425.283 210.837 425.24 210.941 425.24 211.05V354.93C425.24 355.039 425.197 355.143 425.12 355.22C425.043 355.297 424.939 355.34 424.83 355.34H336.36C336.251 355.34 336.147 355.297 336.07 355.22C335.993 355.143 335.95 355.039 335.95 354.93V1.38997C335.95 1.28123 335.993 1.17694 336.07 1.10005C336.147 1.02316 336.251 0.979965 336.36 0.979965L555.22 0.969971C555.329 0.969971 555.433 1.01317 555.51 1.09006C555.587 1.16695 555.63 1.27124 555.63 1.37997L555.64 76.78C555.64 76.8887 555.597 76.993 555.52 77.0699C555.443 77.1468 555.339 77.19 555.23 77.19L425.65 77.18C425.541 77.18 425.437 77.2232 425.36 77.3C425.283 77.3769 425.24 77.4812 425.24 77.59V138.61C425.24 138.719 425.283 138.823 425.36 138.9C425.437 138.977 425.541 139.02 425.65 139.02Z" fill="black"/>
<path d="M762.7 88.84V355.03C762.7 355.071 762.692 355.111 762.676 355.149C762.661 355.186 762.638 355.22 762.609 355.249C762.58 355.278 762.546 355.301 762.508 355.316C762.471 355.332 762.43 355.34 762.39 355.34H674.08C674.039 355.34 673.999 355.332 673.961 355.316C673.924 355.301 673.889 355.278 673.861 355.249C673.832 355.22 673.809 355.186 673.793 355.149C673.778 355.111 673.77 355.071 673.77 355.03V88.83C673.77 88.7478 673.737 88.6689 673.679 88.6108C673.621 88.5527 673.542 88.52 673.46 88.52H583.53C583.448 88.52 583.369 88.4873 583.311 88.4292C583.252 88.371 583.22 88.2922 583.22 88.21L583.23 1.28998C583.23 1.20776 583.262 1.12892 583.321 1.07079C583.379 1.01265 583.458 0.97998 583.54 0.97998H852.95C853.032 0.97998 853.111 1.01265 853.169 1.07079C853.227 1.12892 853.26 1.20776 853.26 1.28998V88.21C853.26 88.2922 853.227 88.371 853.169 88.4292C853.111 88.4873 853.032 88.52 852.95 88.52L763.01 88.53C762.928 88.53 762.849 88.5626 762.791 88.6208C762.732 88.6789 762.7 88.7578 762.7 88.84Z" fill="black"/>
<path d="M985.579 113.98H897.4C897.145 113.98 896.939 114.186 896.939 114.44V354.88C896.939 355.134 897.145 355.34 897.4 355.34H985.579C985.834 355.34 986.04 355.134 986.04 354.88V114.44C986.04 114.186 985.834 113.98 985.579 113.98Z" fill="black"/>
<path d="M693.85 563.02C687.95 562.087 682.047 561.157 676.14 560.23C671.7 559.53 667.357 558.51 663.11 557.17C659.69 556.09 656.274 555.01 652.86 553.93C643.8 551.07 635.23 546.02 626.8 541.7C621.25 538.87 616.71 533.69 612.23 529.43C605.48 523.02 600.3 513.82 595.05 506.13C592.777 502.81 590.85 499.383 589.27 495.85C580.61 476.477 572.787 456.767 565.8 436.72C564.56 433.15 560.25 430.45 557.3 428.34C557 428.12 556.664 428.01 556.29 428.01L546.2 427.93C545.787 427.93 545.42 428.057 545.1 428.31L537.79 434.1C537.51 434.322 537.298 434.624 537.18 434.97C530.014 455.71 521.95 476.087 512.99 496.1C508.78 505.5 501.96 514.04 496.11 522.52C494.237 525.227 492.12 527.69 489.76 529.91C485.21 534.18 480.75 539.24 475.1 542.06C466.55 546.34 458.17 551.3 449.02 554.17C445.514 555.27 442.01 556.38 438.51 557.5C429.23 560.46 419.28 561.37 409.69 562.82C405.73 563.42 401.75 563.677 397.75 563.59C388.01 563.4 378.21 563.57 368.5 562.32C363.5 561.68 358.7 561.43 353.99 559.8C344.65 556.567 335.85 552.237 327.59 546.81C321.76 542.98 316.23 537.68 310.63 532.87C309.277 531.71 306.817 528.76 303.25 524.02C299.64 519.22 297.25 513.83 294.57 508.44C293.21 505.707 292.15 502.81 291.39 499.75C290.13 494.73 288.71 489.79 287.95 484.68C284.397 460.76 281.66 444.117 279.74 434.75C279.367 432.937 278.394 430.343 276.82 426.97C275.527 424.203 273.964 421.977 272.13 420.29C269.11 417.517 265.674 415.353 261.82 413.8C261.46 413.653 261.26 413.387 261.22 413L258.32 381.32C258.31 381.21 258.34 381.1 258.405 381.011C258.47 380.922 258.564 380.862 258.67 380.84C274.7 377.69 290.58 374.2 306.95 372.51C318.11 371.36 329.43 369.89 340.39 369.43C355.53 368.8 370.37 368.16 385.73 369C399.43 369.74 413.127 370.467 426.82 371.18C431.794 371.44 436.704 372.03 441.55 372.95C454.304 375.37 467.054 377.807 479.8 380.26C485.347 381.333 490.904 382.747 496.47 384.5C509.37 388.553 522.3 392.513 535.26 396.38C538.194 397.26 541.037 397.733 543.79 397.8C550.12 397.96 558.72 398.37 564.71 396.29C566.11 395.8 567.7 396.09 569.03 395.69C581.744 391.883 594.43 388 607.09 384.04C612.404 382.38 617.764 381.04 623.17 380.02C635.557 377.7 647.934 375.34 660.3 372.94C665.127 372 669.964 371.4 674.81 371.14C689.71 370.32 704.61 369.533 719.51 368.78C726.037 368.447 732.534 368.38 739 368.58C751.85 368.97 764.61 369.18 777.43 370.52C783.724 371.18 790.02 371.843 796.32 372.51C812.27 374.21 827.93 377.67 843.62 380.74C843.742 380.764 843.85 380.832 843.924 380.93C843.998 381.028 844.032 381.149 844.02 381.27L841.1 413C841.085 413.146 841.031 413.284 840.945 413.4C840.859 413.516 840.743 413.606 840.61 413.66C836.85 415.193 833.49 417.277 830.53 419.91C828.51 421.71 826.83 424.047 825.49 426.92C823.924 430.293 822.89 433.24 822.39 435.76C820.41 445.713 817.874 461.123 814.78 481.99C813.86 488.25 812.38 494.06 810.88 500.15C809.15 507.19 804.94 514.15 801.58 520.57C800.787 522.083 798.574 524.923 794.94 529.09C791.01 533.59 786.34 537.41 781.7 541.44C779.6 543.267 777.664 544.773 775.89 545.96C767.784 551.42 759.14 555.81 749.96 559.13C746.854 560.257 743.3 561.063 739.3 561.55C733.93 562.2 728.62 562.99 723.21 563.11C715.137 563.277 707.067 563.437 699 563.59C698.08 563.61 696.364 563.42 693.85 563.02ZM418.18 550.4C421.49 549.74 425.27 549.3 427.99 548.44C436.45 545.77 447.39 541.97 455.64 537.31C459.02 535.397 462.32 533.357 465.54 531.19C471.33 527.29 475.89 521.36 480.62 516.15C488.73 507.24 493.99 496.02 497.99 484.78C499.73 479.893 501.35 473.44 502.85 465.42C505.02 453.79 506.97 445.1 506.54 436.14C506.27 430.67 503.17 422.19 499.86 417.77C496.39 413.13 492.91 407.88 488.94 403.69C487.22 401.883 485.924 400.783 485.05 400.39C477.13 396.877 469.017 393.907 460.71 391.48C455.524 389.96 449.804 388.863 443.55 388.19C422.717 385.943 401.827 385.07 380.88 385.57C375.354 385.703 369.29 386.167 362.69 386.96C356.657 387.68 350.62 388.41 344.58 389.15C341.454 389.537 338.654 390.247 336.18 391.28C327.21 395.05 316.19 400.64 310.74 408.96C304.11 419.09 299.04 431.97 299.97 444.22C300.617 452.693 301.3 461.167 302.02 469.64C302.327 473.327 302.977 476.843 303.97 480.19C307.19 491.05 310.34 499.853 313.42 506.6C319.24 519.333 328.367 529.907 340.8 538.32C345.4 541.43 348.02 543.33 352.36 544.67C360.37 547.13 369.41 550.8 377.77 551.27C391.11 552.01 405 553.05 418.18 550.4ZM785.33 402.12C779.71 397.43 772.79 394.15 766.11 391.18C763.917 390.2 761.6 389.553 759.16 389.24C748.27 387.86 737.61 386.34 726.56 386.13C710.65 385.83 694.36 384.94 678.61 386.24C666.42 387.24 653.81 387.96 642.38 391.18C634.594 393.38 626.984 396.097 619.55 399.33C612.39 402.45 607.56 410.79 602.36 417.85C599.82 421.3 598.76 425.01 597.31 428.96C595.56 433.73 595.27 439.28 595.85 443.75C596.49 448.59 597.73 455.917 599.57 465.73C601.064 473.677 602.704 480.127 604.49 485.08C607.01 492.073 610.11 498.807 613.79 505.28C617.91 512.54 623.84 518.59 629.63 524.8C637.34 533.07 649.13 539.3 659.68 543.15C665.67 545.33 671.79 547.92 678.06 549.14C684.08 550.31 689.9 551.56 695.93 551.75C705.304 552.043 714.674 551.867 724.04 551.22C727.447 550.98 730.867 550.347 734.3 549.32C743.59 546.55 752.48 544.65 760.75 538.74C767.097 534.2 772.55 529.453 777.11 524.5C780.35 520.98 782.84 516.61 785.48 512.43C787.507 509.217 789.197 505.957 790.55 502.65C793.617 495.183 795.54 489.717 796.32 486.25C799.447 472.35 801.48 458.297 802.42 444.09C802.68 440.183 802.474 436.64 801.8 433.46C799.44 422.31 794.25 409.57 785.33 402.12ZM303.19 394.825C303.093 393.67 302.542 392.601 301.656 391.853C300.771 391.105 299.625 390.739 298.47 390.836L273.697 392.916C272.542 393.013 271.473 393.565 270.725 394.45C269.977 395.335 269.611 396.481 269.708 397.636L269.73 397.895C269.827 399.05 270.379 400.119 271.264 400.867C272.149 401.615 273.295 401.981 274.45 401.884L299.223 399.804C300.378 399.707 301.447 399.155 302.195 398.27C302.943 397.385 303.309 396.239 303.212 395.084L303.19 394.825ZM832.685 397.51C832.732 396.939 832.666 396.365 832.491 395.819C832.316 395.274 832.035 394.769 831.665 394.332C831.295 393.896 830.842 393.536 830.333 393.274C829.824 393.013 829.268 392.854 828.697 392.807L803.841 390.763C802.688 390.669 801.546 391.036 800.664 391.783C799.782 392.531 799.233 393.599 799.138 394.751L799.115 395.031C799.068 395.601 799.134 396.175 799.309 396.721C799.484 397.266 799.765 397.771 800.135 398.208C800.506 398.644 800.958 399.004 801.468 399.266C801.977 399.527 802.533 399.686 803.103 399.733L827.96 401.777C829.112 401.871 830.255 401.504 831.137 400.757C832.019 400.009 832.567 398.941 832.662 397.789L832.685 397.51Z" fill="black"/>
<path d="M418.18 550.4C405 553.05 391.11 552.01 377.77 551.27C369.41 550.8 360.37 547.13 352.36 544.67C348.02 543.33 345.4 541.43 340.8 538.32C328.366 529.907 319.24 519.333 313.42 506.6C310.34 499.853 307.19 491.05 303.97 480.19C302.976 476.843 302.326 473.327 302.02 469.64C301.3 461.167 300.616 452.693 299.97 444.22C299.04 431.97 304.11 419.09 310.74 408.96C316.19 400.64 327.21 395.05 336.18 391.28C338.653 390.247 341.453 389.537 344.58 389.15C350.62 388.41 356.656 387.68 362.69 386.96C369.29 386.167 375.353 385.703 380.88 385.57C401.826 385.07 422.716 385.943 443.55 388.19C449.803 388.863 455.523 389.96 460.71 391.48C469.016 393.907 477.13 396.877 485.05 400.39C485.923 400.783 487.22 401.883 488.94 403.69C492.91 407.88 496.39 413.13 499.86 417.77C503.17 422.19 506.27 430.67 506.54 436.14C506.97 445.1 505.02 453.79 502.85 465.42C501.35 473.44 499.73 479.893 497.99 484.78C493.99 496.02 488.73 507.24 480.62 516.15C475.89 521.36 471.33 527.29 465.54 531.19C462.32 533.357 459.02 535.397 455.64 537.31C447.39 541.97 436.45 545.77 427.99 548.44C425.27 549.3 421.49 549.74 418.18 550.4Z" fill="#665EE0"/>
<path d="M766.11 391.18C772.79 394.15 779.71 397.43 785.33 402.12C794.25 409.57 799.44 422.31 801.8 433.46C802.474 436.64 802.68 440.183 802.42 444.09C801.48 458.297 799.447 472.35 796.32 486.25C795.54 489.717 793.617 495.183 790.55 502.65C789.197 505.957 787.507 509.217 785.48 512.43C782.84 516.61 780.35 520.98 777.11 524.5C772.55 529.453 767.097 534.2 760.75 538.74C752.48 544.65 743.59 546.55 734.3 549.32C730.867 550.347 727.447 550.98 724.04 551.22C714.674 551.867 705.304 552.043 695.93 551.75C689.9 551.56 684.08 550.31 678.06 549.14C671.79 547.92 665.67 545.33 659.68 543.15C649.13 539.3 637.34 533.07 629.63 524.8C623.84 518.59 617.91 512.54 613.79 505.28C610.11 498.807 607.01 492.073 604.49 485.08C602.704 480.127 601.064 473.677 599.57 465.73C597.73 455.917 596.49 448.59 595.85 443.75C595.27 439.28 595.56 433.73 597.31 428.96C598.76 425.01 599.82 421.3 602.36 417.85C607.56 410.79 612.39 402.45 619.55 399.33C626.984 396.097 634.594 393.38 642.38 391.18C653.81 387.96 666.42 387.24 678.61 386.24C694.36 384.94 710.65 385.83 726.56 386.13C737.61 386.34 748.27 387.86 759.16 389.24C761.6 389.553 763.917 390.2 766.11 391.18Z" fill="#665EE0"/>
<path d="M298.47 390.836L273.697 392.916C271.292 393.118 269.506 395.231 269.708 397.636L269.73 397.895C269.932 400.3 272.046 402.086 274.451 401.884L299.223 399.804C301.628 399.602 303.414 397.489 303.212 395.084L303.191 394.825C302.989 392.42 300.875 390.634 298.47 390.836Z" fill="white"/>
<path d="M828.697 392.807L803.84 390.764C801.441 390.566 799.335 392.352 799.138 394.752L799.115 395.031C798.918 397.431 800.703 399.536 803.103 399.733L827.959 401.777C830.359 401.974 832.464 400.189 832.662 397.789L832.685 397.51C832.882 395.11 831.096 393.004 828.697 392.807Z" fill="white"/>
<path d="M473.71 571.21H591.06C591.118 571.209 591.176 571.225 591.225 571.255C591.275 571.285 591.316 571.329 591.342 571.381C591.368 571.434 591.379 571.492 591.373 571.55C591.367 571.608 591.345 571.664 591.31 571.71L487.06 704.78C487.024 704.827 487.002 704.882 486.997 704.941C486.991 704.999 487.003 705.058 487.03 705.11L596.13 925.14C596.154 925.188 596.165 925.24 596.163 925.294C596.16 925.347 596.144 925.399 596.116 925.444C596.088 925.489 596.049 925.526 596.002 925.552C595.955 925.577 595.903 925.591 595.85 925.59H487.06C486.998 925.591 486.937 925.573 486.885 925.539C486.834 925.505 486.793 925.457 486.77 925.4L426.5 780.41C426.479 780.36 426.445 780.317 426.402 780.284C426.359 780.251 426.308 780.23 426.255 780.223C426.201 780.216 426.147 780.223 426.097 780.244C426.047 780.264 426.003 780.297 425.97 780.34L380.53 839C380.489 839.055 380.468 839.122 380.47 839.19V925.28C380.47 925.362 380.437 925.441 380.379 925.499C380.321 925.557 380.242 925.59 380.16 925.59H291.87C291.787 925.59 291.708 925.557 291.65 925.499C291.592 925.441 291.56 925.362 291.56 925.28V571.52C291.56 571.438 291.592 571.359 291.65 571.301C291.708 571.243 291.787 571.21 291.87 571.21H380.16C380.242 571.21 380.321 571.243 380.379 571.301C380.437 571.359 380.47 571.438 380.47 571.52V704.05C380.47 704.115 380.491 704.178 380.53 704.231C380.569 704.283 380.623 704.322 380.685 704.342C380.747 704.362 380.813 704.362 380.875 704.342C380.937 704.322 380.991 704.282 381.03 704.23L473.46 571.34C473.488 571.3 473.526 571.268 473.569 571.245C473.612 571.222 473.661 571.21 473.71 571.21Z" fill="black"/>
<path d="M717.909 571.05H629.31C629.149 571.05 629.02 571.18 629.02 571.34V657.24C629.02 657.4 629.149 657.53 629.31 657.53H717.909C718.07 657.53 718.2 657.4 718.2 657.24V571.34C718.2 571.18 718.07 571.05 717.909 571.05Z" fill="#665EE0"/>
<path d="M941.21 659.18V925.21C941.21 925.311 941.17 925.407 941.099 925.479C941.028 925.55 940.931 925.59 940.83 925.59H852.66C852.559 925.59 852.463 925.55 852.392 925.479C852.32 925.407 852.28 925.311 852.28 925.21V659.18C852.28 659.079 852.24 658.983 852.169 658.911C852.098 658.84 852.001 658.8 851.9 658.8L762.12 658.81C762.019 658.81 761.923 658.77 761.852 658.699C761.78 658.627 761.74 658.531 761.74 658.43V571.59C761.74 571.489 761.78 571.392 761.852 571.321C761.923 571.25 762.019 571.21 762.12 571.21H1031.35C1031.45 571.21 1031.55 571.25 1031.62 571.321C1031.69 571.392 1031.73 571.489 1031.73 571.59V658.44C1031.73 658.541 1031.69 658.637 1031.62 658.709C1031.55 658.78 1031.45 658.82 1031.35 658.82L941.59 658.8C941.489 658.8 941.393 658.84 941.322 658.911C941.25 658.983 941.21 659.079 941.21 659.18Z" fill="black"/>
<path d="M90.44 845.33H242.96C243.011 845.33 243.062 845.34 243.109 845.36C243.157 845.379 243.2 845.408 243.236 845.444C243.272 845.48 243.301 845.523 243.32 845.571C243.34 845.618 243.35 845.669 243.35 845.72V925.2C243.35 925.303 243.309 925.403 243.236 925.476C243.163 925.549 243.063 925.59 242.96 925.59H1.34996C1.24653 925.59 1.14733 925.549 1.07419 925.476C1.00105 925.403 0.959961 925.303 0.959961 925.2V571.6C0.959961 571.496 1.00105 571.397 1.07419 571.324C1.14733 571.251 1.24653 571.21 1.34996 571.21H238.67C238.773 571.21 238.873 571.251 238.946 571.324C239.019 571.397 239.06 571.496 239.06 571.6V646.57C239.06 646.673 239.019 646.773 238.946 646.846C238.873 646.919 238.773 646.96 238.67 646.96L90.44 646.95C90.3365 646.95 90.2373 646.991 90.1642 647.064C90.091 647.137 90.0499 647.237 90.0499 647.34V844.94C90.0499 845.043 90.091 845.143 90.1642 845.216C90.2373 845.289 90.3365 845.33 90.44 845.33Z" fill="black"/>
<path d="M717.85 683.13H629.47C629.265 683.13 629.1 683.296 629.1 683.5V925.22C629.1 925.424 629.265 925.59 629.47 925.59H717.85C718.054 925.59 718.22 925.424 718.22 925.22V683.5C718.22 683.296 718.054 683.13 717.85 683.13Z" fill="black"/>
</g>
<defs>
<clipPath id="clip0_15106_102">
<rect width="1032" height="926" fill="white"/>
</clipPath>
</defs>
</svg>
