<svg width="1032" height="931" viewBox="0 0 1032 931" fill="none" xmlns="http://www.w3.org/2000/svg">
<g clip-path="url(#clip0_15106_99)">
<path d="M678.27 558.33C677.576 557.59 676.34 557.437 674.56 557.87" stroke="#B3AFF0" stroke-width="2"/>
<path d="M481.37 513.69C489.59 504.65 495.1 492.15 499.02 480.66C500.6 476.02 502.117 469.543 503.57 461.23C505.1 452.44 507.38 443.27 507 434.33C506.73 428.07 503.32 419.45 499.52 414.47C495.54 409.25 490.13 400.12 484.05 397.46C475.384 393.667 466.487 390.54 457.36 388.08C453.56 387.053 449.267 386.35 444.48 385.97C437.054 385.37 429.63 384.743 422.21 384.09C415.39 383.483 408.737 383.203 402.25 383.25C395.31 383.29 388.367 383.343 381.42 383.41C375.014 383.477 368.754 383.867 362.64 384.58C356.407 385.307 350.18 386.073 343.96 386.88C340.947 387.267 338.224 387.987 335.79 389.04C327.28 392.73 315.83 398.37 310.66 406.43C304.59 415.89 299.01 428.93 299.76 440.34C300.327 448.967 301.05 457.577 301.93 466.17C302.424 471.043 303.29 475.587 304.53 479.8C307.5 489.91 310.92 500.29 316.11 509.53C318.837 514.37 320.854 517.63 322.16 519.31C327.7 526.41 335.46 533.157 345.44 539.55C347.394 540.797 349.174 541.67 350.78 542.17C357.04 544.11 363.31 546.043 369.59 547.97C372.19 548.77 374.844 549.227 377.55 549.34C391.67 549.96 405.23 551.04 419.63 548.39C423.777 547.623 428.614 546.313 434.14 544.46C446.24 540.41 454.76 536.71 465.16 529.73C471.41 525.54 476.29 519.27 481.37 513.69Z" stroke="#B3AFF0" stroke-width="2"/>
<path d="M791.08 501.52C794.153 494.06 796.79 486.45 798.99 478.69C800.163 474.563 800.98 470.03 801.44 465.09C802.207 456.903 802.887 448.703 803.48 440.49C803.72 437.197 803.55 434.227 802.97 431.58C800.91 422.17 797.07 412.4 791.2 404.63C785.77 397.43 775.28 392.3 767.11 388.81C764.737 387.79 762.077 387.1 759.13 386.74C753.157 386 747.18 385.267 741.2 384.54C735.193 383.813 729.203 383.417 723.23 383.35C709.11 383.2 695.19 382.77 681.03 383.99C673.483 384.643 665.933 385.287 658.38 385.92C653.533 386.333 649.17 387.07 645.29 388.13C636.557 390.53 628.03 393.533 619.71 397.14C612.95 400.06 607.82 409.01 603.64 414.53C600.32 418.91 598.97 423.44 597.17 428.48C595.47 433.23 596.08 440.02 596.92 445.03C598.93 457.13 600.67 470.22 604.38 481.06C608.4 492.82 613.85 504.59 622.21 513.95C627.26 519.6 632.18 525.75 638.51 529.89C642.077 532.223 645.733 534.4 649.48 536.42C657.17 540.57 668.62 544.51 675.51 546.52C681.89 548.387 689.28 549.523 697.68 549.93C705.58 550.32 715.19 549.64 723.94 549.39C732.12 549.16 740.53 545.83 748.29 543.41C752.13 542.217 755.45 540.757 758.25 539.03C766.37 534.01 773.93 527.47 780.19 520.24C781.57 518.647 782.793 516.92 783.86 515.06C786.42 510.59 789.15 506.21 791.08 501.52Z" stroke="#B3AFF0" stroke-width="2"/>
<path d="M303.11 392.5C303.013 391.346 302.461 390.276 301.576 389.528C300.691 388.78 299.544 388.414 298.39 388.511L273.517 390.6C272.362 390.697 271.293 391.249 270.545 392.134C269.797 393.019 269.431 394.165 269.528 395.32L269.55 395.579C269.647 396.734 270.199 397.803 271.084 398.552C271.969 399.3 273.115 399.665 274.27 399.568L299.143 397.48C300.298 397.383 301.367 396.831 302.115 395.946C302.863 395.061 303.229 393.914 303.132 392.76L303.11 392.5Z" stroke="#808080" stroke-width="2"/>
<path d="M833.734 395.201C833.781 394.628 833.715 394.051 833.539 393.503C833.363 392.956 833.081 392.448 832.709 392.009C832.337 391.571 831.883 391.209 831.371 390.947C830.859 390.684 830.301 390.524 829.728 390.477L804.872 388.433C804.298 388.386 803.721 388.453 803.174 388.628C802.626 388.804 802.118 389.086 801.68 389.458C801.241 389.83 800.88 390.285 800.617 390.797C800.354 391.308 800.194 391.867 800.147 392.44L800.126 392.699C800.079 393.272 800.145 393.849 800.321 394.397C800.497 394.944 800.779 395.452 801.151 395.891C801.523 396.329 801.978 396.691 802.489 396.954C803.001 397.216 803.559 397.376 804.132 397.423L828.989 399.467C829.562 399.514 830.139 399.448 830.686 399.272C831.234 399.096 831.742 398.814 832.181 398.442C832.619 398.07 832.98 397.615 833.243 397.103C833.506 396.592 833.666 396.033 833.713 395.46L833.734 395.201Z" stroke="#808080" stroke-width="2"/>
<path d="M984.74 0.439941H896.14C895.991 0.439941 895.87 0.560814 895.87 0.70993V87.45C895.87 87.5991 895.991 87.7199 896.14 87.7199H984.74C984.889 87.7199 985.01 87.5991 985.01 87.45V0.70993C985.01 0.560814 984.889 0.439941 984.74 0.439941Z" fill="#665EE0"/>
<path d="M192.28 0.500036H275.44C275.52 0.500036 275.596 0.531635 275.652 0.587896C275.708 0.644157 275.74 0.720459 275.74 0.800024L275.72 354.58C275.72 354.66 275.688 354.736 275.632 354.792C275.576 354.848 275.5 354.88 275.42 354.88L192.1 354.87C192.046 354.872 191.992 354.859 191.944 354.832C191.897 354.806 191.857 354.767 191.83 354.72L84.82 161.29C84.7875 161.233 84.7374 161.189 84.6773 161.163C84.6172 161.138 84.5504 161.133 84.4871 161.148C84.4237 161.164 84.3673 161.2 84.3263 161.251C84.2853 161.302 84.2621 161.365 84.26 161.43V354.58C84.26 354.619 84.2522 354.658 84.2372 354.695C84.2221 354.731 84.2 354.764 84.1721 354.792C84.1443 354.82 84.1112 354.842 84.0748 354.857C84.0384 354.872 83.9994 354.88 83.96 354.88L1.05 354.87C0.970438 354.87 0.894136 354.838 0.837875 354.782C0.781614 354.726 0.75 354.65 0.75 354.57V0.800024C0.75 0.720459 0.781614 0.644157 0.837875 0.587896C0.894136 0.531635 0.970438 0.500036 1.05 0.500036L83.5 0.490026C83.5554 0.489167 83.6099 0.503686 83.6576 0.531927C83.7052 0.560168 83.7441 0.601032 83.77 0.65003L191.42 195.62C191.453 195.677 191.503 195.721 191.563 195.747C191.623 195.772 191.69 195.777 191.753 195.762C191.816 195.746 191.873 195.71 191.914 195.659C191.955 195.608 191.978 195.545 191.98 195.48V0.800024C191.98 0.720459 192.012 0.644157 192.068 0.587896C192.124 0.531635 192.2 0.500036 192.28 0.500036Z" fill="white"/>
<path d="M424.24 210.57L424.23 354.44C424.23 354.557 424.184 354.669 424.101 354.751C424.019 354.834 423.907 354.88 423.79 354.88L335.43 354.87C335.314 354.87 335.202 354.824 335.119 354.741C335.037 354.659 334.99 354.547 334.99 354.43V0.929993C334.99 0.813297 335.037 0.701382 335.119 0.618866C335.202 0.53635 335.314 0.48999 335.43 0.48999L554.17 0.5C554.287 0.5 554.399 0.54636 554.481 0.628876C554.564 0.711392 554.61 0.823307 554.61 0.940002L554.64 76.24C554.64 76.3567 554.594 76.4686 554.511 76.5511C554.429 76.6336 554.317 76.68 554.2 76.68L424.68 76.67C424.564 76.67 424.452 76.7163 424.369 76.7989C424.287 76.8814 424.24 76.9933 424.24 77.11L424.23 138.12C424.23 138.237 424.277 138.349 424.359 138.431C424.442 138.514 424.554 138.56 424.67 138.56L535.2 138.55C535.317 138.55 535.429 138.596 535.511 138.679C535.594 138.761 535.64 138.873 535.64 138.99L535.61 209.69C535.61 209.807 535.564 209.919 535.481 210.001C535.399 210.084 535.287 210.13 535.17 210.13H424.68C424.564 210.13 424.452 210.176 424.369 210.259C424.287 210.341 424.24 210.453 424.24 210.57Z" fill="white"/>
<path d="M761.73 88.41V354.51C761.73 354.608 761.691 354.702 761.622 354.772C761.553 354.841 761.458 354.88 761.36 354.88L673.17 354.87C673.072 354.87 672.978 354.831 672.909 354.762C672.839 354.692 672.8 354.598 672.8 354.5V88.41C672.8 88.3119 672.761 88.2178 672.692 88.1484C672.623 88.079 672.528 88.04 672.43 88.04H582.62C582.522 88.04 582.428 88.001 582.359 87.9316C582.289 87.8623 582.25 87.7681 582.25 87.67L582.24 0.859985C582.24 0.761855 582.279 0.667747 582.349 0.598358C582.418 0.52897 582.512 0.48999 582.61 0.48999L851.88 0.5C851.978 0.5 852.072 0.538979 852.142 0.608368C852.211 0.677756 852.25 0.771865 852.25 0.869995V87.67C852.25 87.7681 852.211 87.8623 852.142 87.9316C852.072 88.001 851.978 88.04 851.88 88.04H762.1C762.002 88.04 761.908 88.079 761.839 88.1484C761.769 88.2178 761.73 88.3119 761.73 88.41Z" fill="white"/>
<path d="M984.74 113.51H896.26C896.111 113.51 895.99 113.631 895.99 113.78V354.6C895.99 354.749 896.111 354.87 896.26 354.87H984.74C984.889 354.87 985.01 354.749 985.01 354.6V113.78C985.01 113.631 984.889 113.51 984.74 113.51Z" fill="white"/>
<path d="M678.27 558.33C677.577 557.59 676.34 557.437 674.56 557.87C668.71 557.05 662.98 554.99 655.99 552.68C650.71 550.933 646.127 549.13 642.24 547.27C633.5 543.07 624.65 538.63 617.54 531.83C614.1 528.54 610.63 525.63 607.86 521.74C603.727 515.94 599.677 510.083 595.71 504.17C593.27 500.53 591.157 496.707 589.37 492.7C580.85 473.547 573.137 454.07 566.23 434.27C565.04 430.85 560.56 428.07 557.75 426.03C557.464 425.823 557.147 425.72 556.8 425.72L546.62 425.66C546.28 425.653 545.97 425.753 545.69 425.96C542.78 428.11 538.46 430.71 537.16 434.21C531.67 448.92 526.4 463.91 520.19 478.17C517.11 485.23 514.28 493.82 509.48 499.86C500.474 511.18 491.674 522.657 483.08 534.29C481.05 537.03 476.84 540.95 473.72 542.42C464.39 546.79 455.18 551.47 445.36 554.53C439.38 556.39 433.55 558.36 427.43 559.37C407.39 562.66 389.94 561.46 370.99 561.12C366.69 561.04 361.904 560.187 356.63 558.56C343.504 554.52 332.46 548.993 323.5 541.98C321.78 540.633 318.514 537.83 313.7 533.57C309.51 529.87 306.42 526.02 303.01 521.73C299.63 517.48 297.44 512.34 295.02 507.5C291.16 499.82 289.02 490.34 287.74 481.87C285.56 467.397 283.214 452.947 280.7 438.52C279.24 430.13 276.44 420.24 269.56 415.17C267.35 413.54 264.35 412.72 261.67 411.46C261.29 411.28 261.08 410.98 261.04 410.56L258.22 379.97C258.18 379.57 258.357 379.33 258.75 379.25C274.87 375.88 291.09 371.92 307.43 370.12C313.39 369.46 319.354 368.827 325.32 368.22C338.58 366.86 351.92 366.66 365.25 366.31C371.797 366.137 378.464 366.223 385.25 366.57C400.31 367.337 415.367 368.153 430.42 369.02C435.234 369.3 440.084 369.917 444.97 370.87C455.27 372.87 465.58 374.803 475.9 376.67C481.32 377.65 486.564 378.923 491.63 380.49C503.257 384.09 514.88 387.713 526.5 391.36C533.74 393.633 541.467 394.727 549.68 394.64C553.84 394.593 559.164 393.877 565.65 392.49C574.78 390.54 583.91 388.84 592.8 386.15C602.107 383.337 611.407 380.5 620.7 377.64C621.76 377.31 622.76 376.78 623.81 376.58C638.957 373.633 654.167 371.07 669.44 368.89C675.147 368.077 681.21 367.587 687.63 367.42C704.91 366.99 722.21 366.1 739.5 366.11C746.43 366.11 753.39 365.57 760.15 366.2C783.004 368.307 798.537 369.98 806.75 371.22C812.27 372.053 824.93 374.483 844.73 378.51C845.01 378.563 845.137 378.733 845.11 379.02L842.23 409.76C842.215 409.908 842.163 410.05 842.079 410.174C841.996 410.297 841.883 410.399 841.75 410.47C838.35 412.31 834.69 413.74 832.13 416.86C830.65 418.66 828.74 420.02 827.74 422.07C825.427 426.843 824.05 430.293 823.61 432.42C821.844 441.007 819.147 457.327 815.52 481.38C814.62 487.4 813.05 493.15 811.55 499.05C810.22 504.28 807.52 508.77 805.11 513.53C801.4 520.86 795.81 528.3 789.55 533.42C780.01 541.21 769.51 549.4 758.15 554.27C750.36 557.61 740.86 558.67 732.09 560.15C728.164 560.81 723.994 561.167 719.58 561.22C712.77 561.3 705.58 561.79 699.14 561.25C692.167 560.663 685.21 559.69 678.27 558.33ZM481.37 513.69C489.59 504.65 495.1 492.15 499.02 480.66C500.6 476.02 502.117 469.543 503.57 461.23C505.1 452.44 507.38 443.27 507 434.33C506.73 428.07 503.32 419.45 499.52 414.47C495.54 409.25 490.13 400.12 484.05 397.46C475.384 393.667 466.487 390.54 457.36 388.08C453.56 387.053 449.267 386.35 444.48 385.97C437.054 385.37 429.63 384.743 422.21 384.09C415.39 383.483 408.737 383.203 402.25 383.25C395.31 383.29 388.367 383.343 381.42 383.41C375.014 383.477 368.754 383.867 362.64 384.58C356.407 385.307 350.18 386.073 343.96 386.88C340.947 387.267 338.224 387.987 335.79 389.04C327.28 392.73 315.83 398.37 310.66 406.43C304.59 415.89 299.01 428.93 299.76 440.34C300.327 448.967 301.05 457.577 301.93 466.17C302.424 471.043 303.29 475.587 304.53 479.8C307.5 489.91 310.92 500.29 316.11 509.53C318.837 514.37 320.854 517.63 322.16 519.31C327.7 526.41 335.46 533.157 345.44 539.55C347.394 540.797 349.174 541.67 350.78 542.17C357.04 544.11 363.31 546.043 369.59 547.97C372.19 548.77 374.844 549.227 377.55 549.34C391.67 549.96 405.23 551.04 419.63 548.39C423.777 547.623 428.614 546.313 434.14 544.46C446.24 540.41 454.76 536.71 465.16 529.73C471.41 525.54 476.29 519.27 481.37 513.69ZM791.08 501.52C794.154 494.06 796.79 486.45 798.99 478.69C800.164 474.563 800.98 470.03 801.44 465.09C802.207 456.903 802.887 448.703 803.48 440.49C803.72 437.197 803.55 434.227 802.97 431.58C800.91 422.17 797.07 412.4 791.2 404.63C785.77 397.43 775.28 392.3 767.11 388.81C764.737 387.79 762.077 387.1 759.13 386.74C753.157 386 747.18 385.267 741.2 384.54C735.194 383.813 729.204 383.417 723.23 383.35C709.11 383.2 695.19 382.77 681.03 383.99C673.484 384.643 665.934 385.287 658.38 385.92C653.534 386.333 649.17 387.07 645.29 388.13C636.557 390.53 628.03 393.533 619.71 397.14C612.95 400.06 607.82 409.01 603.64 414.53C600.32 418.91 598.97 423.44 597.17 428.48C595.47 433.23 596.08 440.02 596.92 445.03C598.93 457.13 600.67 470.22 604.38 481.06C608.4 492.82 613.85 504.59 622.21 513.95C627.26 519.6 632.18 525.75 638.51 529.89C642.077 532.223 645.734 534.4 649.48 536.42C657.17 540.57 668.62 544.51 675.51 546.52C681.89 548.387 689.28 549.523 697.68 549.93C705.58 550.32 715.19 549.64 723.94 549.39C732.12 549.16 740.53 545.83 748.29 543.41C752.13 542.217 755.45 540.757 758.25 539.03C766.37 534.01 773.93 527.47 780.19 520.24C781.57 518.647 782.794 516.92 783.86 515.06C786.42 510.59 789.15 506.21 791.08 501.52ZM303.11 392.5C303.013 391.345 302.462 390.276 301.576 389.528C300.691 388.78 299.545 388.414 298.39 388.511L273.518 390.6C272.363 390.697 271.294 391.249 270.545 392.134C269.797 393.019 269.432 394.165 269.529 395.32L269.55 395.579C269.647 396.734 270.199 397.803 271.084 398.552C271.97 399.3 273.116 399.665 274.271 399.568L299.143 397.48C300.298 397.383 301.367 396.831 302.115 395.946C302.863 395.061 303.229 393.914 303.132 392.76L303.11 392.5ZM833.734 395.201C833.781 394.628 833.715 394.051 833.539 393.503C833.364 392.956 833.082 392.448 832.71 392.009C832.338 391.57 831.883 391.209 831.371 390.946C830.86 390.684 830.301 390.524 829.728 390.477L804.872 388.433C804.299 388.386 803.722 388.452 803.174 388.628C802.626 388.804 802.119 389.086 801.68 389.458C801.241 389.83 800.88 390.285 800.617 390.796C800.354 391.308 800.195 391.866 800.148 392.44L800.126 392.699C800.079 393.272 800.145 393.849 800.321 394.397C800.497 394.944 800.779 395.452 801.151 395.891C801.523 396.329 801.978 396.691 802.49 396.953C803.001 397.216 803.56 397.376 804.133 397.423L828.989 399.467C829.562 399.514 830.139 399.447 830.687 399.272C831.234 399.096 831.742 398.814 832.181 398.442C832.619 398.07 832.98 397.615 833.243 397.103C833.506 396.592 833.666 396.033 833.713 395.46L833.734 395.201Z" fill="white"/>
<path d="M499.02 480.66C495.1 492.15 489.59 504.65 481.37 513.69C476.29 519.27 471.41 525.54 465.16 529.73C454.76 536.71 446.24 540.41 434.14 544.46C428.614 546.313 423.777 547.623 419.63 548.39C405.23 551.04 391.67 549.96 377.55 549.34C374.844 549.227 372.19 548.77 369.59 547.97C363.31 546.043 357.04 544.11 350.78 542.17C349.174 541.67 347.394 540.797 345.44 539.55C335.46 533.157 327.7 526.41 322.16 519.31C320.854 517.63 318.837 514.37 316.11 509.53C310.92 500.29 307.5 489.91 304.53 479.8C303.29 475.587 302.424 471.043 301.93 466.17C301.05 457.577 300.327 448.967 299.76 440.34C299.01 428.93 304.59 415.89 310.66 406.43C315.83 398.37 327.28 392.73 335.79 389.04C338.224 387.987 340.947 387.267 343.96 386.88C350.18 386.073 356.407 385.307 362.64 384.58C368.754 383.867 375.014 383.477 381.42 383.41C388.367 383.343 395.31 383.29 402.25 383.25C408.737 383.203 415.39 383.483 422.21 384.09C429.63 384.743 437.054 385.37 444.48 385.97C449.267 386.35 453.56 387.053 457.36 388.08C466.487 390.54 475.384 393.667 484.05 397.46C490.13 400.12 495.54 409.25 499.52 414.47C503.32 419.45 506.73 428.07 507 434.33C507.38 443.27 505.1 452.44 503.57 461.23C502.117 469.543 500.6 476.02 499.02 480.66Z" fill="#665EE0"/>
<path d="M791.08 501.52C789.15 506.21 786.42 510.59 783.86 515.06C782.793 516.92 781.57 518.647 780.19 520.24C773.93 527.47 766.37 534.01 758.25 539.03C755.45 540.757 752.13 542.217 748.29 543.41C740.53 545.83 732.12 549.16 723.94 549.39C715.19 549.64 705.58 550.32 697.68 549.93C689.28 549.523 681.89 548.387 675.51 546.52C668.62 544.51 657.17 540.57 649.48 536.42C645.733 534.4 642.077 532.223 638.51 529.89C632.18 525.75 627.26 519.6 622.21 513.95C613.85 504.59 608.4 492.82 604.38 481.06C600.67 470.22 598.93 457.13 596.92 445.03C596.08 440.02 595.47 433.23 597.17 428.48C598.97 423.44 600.32 418.91 603.64 414.53C607.82 409.01 612.95 400.06 619.71 397.14C628.03 393.533 636.557 390.53 645.29 388.13C649.17 387.07 653.533 386.333 658.38 385.92C665.933 385.287 673.483 384.643 681.03 383.99C695.19 382.77 709.11 383.2 723.23 383.35C729.203 383.417 735.193 383.813 741.2 384.54C747.18 385.267 753.157 386 759.13 386.74C762.077 387.1 764.737 387.79 767.11 388.81C775.28 392.3 785.77 397.43 791.2 404.63C797.07 412.4 800.91 422.17 802.97 431.58C803.55 434.227 803.72 437.197 803.48 440.49C802.887 448.703 802.207 456.903 801.44 465.09C800.98 470.03 800.163 474.563 798.99 478.69C796.79 486.45 794.153 494.06 791.08 501.52Z" fill="#665EE0"/>
<path d="M298.389 388.512L273.517 390.6C271.112 390.802 269.326 392.915 269.528 395.32L269.55 395.58C269.751 397.985 271.865 399.771 274.27 399.569L299.142 397.48C301.547 397.278 303.333 395.165 303.131 392.76L303.11 392.501C302.908 390.096 300.794 388.31 298.389 388.512Z" fill="black"/>
<path d="M829.727 390.477L804.871 388.433C802.46 388.235 800.345 390.029 800.147 392.44L800.126 392.699C799.927 395.11 801.721 397.225 804.132 397.423L828.988 399.467C831.399 399.665 833.514 397.871 833.712 395.46L833.734 395.201C833.932 392.79 832.138 390.675 829.727 390.477Z" fill="black"/>
<path d="M678.27 558.33L674.56 557.87C676.34 557.437 677.576 557.59 678.27 558.33Z" fill="#665EE0"/>
<path d="M89.35 849.99L241.95 849.98C242.04 849.98 242.127 850.016 242.19 850.08C242.254 850.143 242.29 850.23 242.29 850.32V929.91C242.29 930 242.254 930.087 242.19 930.15C242.127 930.214 242.04 930.25 241.95 930.25H0.339996C0.249823 930.25 0.163341 930.214 0.0995789 930.15C0.0358165 930.087 0 930 0 929.91V576.19C0 576.1 0.0358165 576.013 0.0995789 575.95C0.163341 575.886 0.249823 575.85 0.339996 575.85L237.67 575.84C237.76 575.84 237.847 575.876 237.91 575.94C237.974 576.003 238.01 576.09 238.01 576.18V651.16C238.01 651.205 238.001 651.249 237.984 651.29C237.967 651.331 237.942 651.369 237.91 651.4C237.879 651.432 237.841 651.457 237.8 651.474C237.759 651.491 237.715 651.5 237.67 651.5L89.35 651.51C89.3054 651.51 89.2611 651.519 89.2199 651.536C89.1786 651.553 89.1412 651.578 89.1096 651.61C89.078 651.641 89.053 651.679 89.0359 651.72C89.0188 651.761 89.01 651.805 89.01 651.85V849.65C89.01 849.74 89.0458 849.827 89.1096 849.89C89.1733 849.954 89.2598 849.99 89.35 849.99Z" fill="white"/>
<path d="M472.74 575.85L589.95 575.84C590.011 575.841 590.071 575.858 590.123 575.891C590.175 575.923 590.217 575.97 590.244 576.025C590.271 576.08 590.282 576.141 590.276 576.202C590.27 576.263 590.247 576.321 590.21 576.37L486.03 709.37C485.991 709.419 485.967 709.477 485.96 709.539C485.952 709.601 485.963 709.664 485.99 709.72L595.1 929.77C595.126 929.82 595.138 929.876 595.136 929.932C595.134 929.988 595.118 930.043 595.089 930.091C595.06 930.139 595.019 930.179 594.97 930.206C594.921 930.234 594.866 930.249 594.81 930.25H486.13C486.066 930.249 486.004 930.23 485.95 930.195C485.897 930.159 485.855 930.109 485.83 930.05L425.53 784.98C425.508 784.926 425.471 784.879 425.425 784.844C425.379 784.808 425.323 784.786 425.266 784.779C425.208 784.772 425.149 784.78 425.095 784.803C425.041 784.826 424.995 784.863 424.96 784.91L379.52 843.57C379.475 843.627 379.451 843.698 379.45 843.77L379.48 929.92C379.48 930.008 379.445 930.091 379.383 930.153C379.322 930.215 379.238 930.25 379.15 930.25H290.95C290.863 930.25 290.779 930.215 290.717 930.153C290.655 930.091 290.62 930.008 290.62 929.92V576.18C290.62 576.093 290.655 576.009 290.717 575.947C290.779 575.885 290.863 575.85 290.95 575.85L379.13 575.84C379.218 575.84 379.302 575.875 379.363 575.937C379.425 575.999 379.46 576.083 379.46 576.17L379.44 708.68C379.44 708.75 379.462 708.819 379.504 708.875C379.545 708.932 379.604 708.974 379.67 708.995C379.737 709.016 379.809 709.015 379.876 708.993C379.942 708.971 380 708.927 380.04 708.87L472.47 575.99C472.501 575.947 472.541 575.911 472.588 575.887C472.635 575.863 472.687 575.85 472.74 575.85Z" fill="white"/>
<path d="M716.919 575.71H628.299C628.145 575.71 628.02 575.835 628.02 575.99V661.87C628.02 662.025 628.145 662.15 628.299 662.15H716.919C717.074 662.15 717.2 662.025 717.2 661.87V575.99C717.2 575.835 717.074 575.71 716.919 575.71Z" fill="#665EE0"/>
<path d="M940.18 663.8V929.83C940.18 929.941 940.136 930.048 940.057 930.127C939.978 930.206 939.871 930.25 939.76 930.25L851.69 930.24C851.635 930.24 851.58 930.229 851.529 930.208C851.478 930.187 851.432 930.156 851.393 930.117C851.354 930.078 851.323 930.032 851.302 929.981C851.281 929.93 851.27 929.875 851.27 929.82L851.28 663.78C851.28 663.669 851.236 663.562 851.157 663.483C851.078 663.404 850.971 663.36 850.86 663.36L761.17 663.39C761.059 663.39 760.952 663.346 760.873 663.267C760.794 663.188 760.75 663.081 760.75 662.97V576.27C760.75 576.159 760.794 576.052 760.873 575.973C760.952 575.894 761.059 575.85 761.17 575.85L1030.28 575.84C1030.34 575.84 1030.39 575.851 1030.44 575.872C1030.49 575.893 1030.54 575.924 1030.58 575.963C1030.62 576.002 1030.65 576.048 1030.67 576.099C1030.69 576.15 1030.7 576.205 1030.7 576.26L1030.73 662.96C1030.73 663.015 1030.72 663.07 1030.7 663.121C1030.68 663.172 1030.65 663.218 1030.61 663.257C1030.57 663.296 1030.52 663.327 1030.47 663.348C1030.42 663.369 1030.37 663.38 1030.31 663.38H940.6C940.489 663.38 940.382 663.424 940.303 663.503C940.224 663.582 940.18 663.689 940.18 663.8Z" fill="white"/>
<path d="M716.92 687.75H628.4C628.251 687.75 628.13 687.871 628.13 688.02V929.98C628.13 930.129 628.251 930.25 628.4 930.25H716.92C717.069 930.25 717.19 930.129 717.19 929.98V688.02C717.19 687.871 717.069 687.75 716.92 687.75Z" fill="white"/>
</g>
<defs>
<clipPath id="clip0_15106_99">
<rect width="1032" height="931" fill="white"/>
</clipPath>
</defs>
</svg>
