<?xml version="1.0" encoding="UTF-8" standalone="no"?>
<!DOCTYPE svg PUBLIC "-//W3C//DTD SVG 1.1//EN" "http://www.w3.org/Graphics/SVG/1.1/DTD/svg11.dtd">
<svg xmlns="http://www.w3.org/2000/svg" version="1.1" viewBox="0.00 0.00 1448.00 1448.00">
<path fill="#000000" d="
  M 283.29 452.98
  L 283.29 646.36
  A 0.40 0.40 0.0 0 1 282.89 646.76
  L 200.25 646.76
  Q 199.74 646.76 199.74 646.25
  L 199.74 292.77
  Q 199.74 292.28 200.23 292.28
  L 282.17 292.28
  Q 282.67 292.28 282.91 292.72
  L 390.53 487.63
  A 0.22 0.22 0.0 0 0 390.94 487.53
  L 390.94 292.79
  Q 390.94 292.28 391.45 292.28
  L 474.12 292.28
  Q 474.71 292.28 474.71 292.87
  L 474.71 646.27
  A 0.49 0.49 0.0 0 1 474.22 646.76
  L 391.52 646.76
  A 1.08 1.08 0.0 0 1 390.58 646.21
  L 283.64 452.89
  A 0.19 0.19 0.0 0 0 283.29 452.98
  Z"
/>
<path fill="#000000" d="
  M 623.24 502.46
  L 623.24 646.34
  A 0.42 0.42 0.0 0 1 622.82 646.76
  L 534.37 646.76
  A 0.42 0.42 0.0 0 1 533.95 646.34
  L 533.95 292.70
  A 0.42 0.42 0.0 0 1 534.37 292.28
  L 753.21 292.28
  A 0.42 0.42 0.0 0 1 753.63 292.70
  L 753.63 368.14
  A 0.42 0.42 0.0 0 1 753.21 368.56
  L 623.66 368.55
  A 0.42 0.42 0.0 0 0 623.24 368.97
  L 623.24 430.01
  A 0.42 0.42 0.0 0 0 623.66 430.43
  L 734.22 430.43
  A 0.42 0.42 0.0 0 1 734.64 430.85
  L 734.62 501.62
  A 0.42 0.42 0.0 0 1 734.20 502.04
  L 623.66 502.04
  A 0.42 0.42 0.0 0 0 623.24 502.46
  Z"
/>
<path fill="#000000" d="
  M 960.70 380.42
  L 960.70 646.36
  A 0.40 0.40 0.0 0 1 960.30 646.76
  L 872.17 646.76
  A 0.40 0.40 0.0 0 1 871.77 646.36
  L 871.77 380.42
  A 0.40 0.40 0.0 0 0 871.37 380.02
  L 781.63 380.02
  A 0.40 0.40 0.0 0 1 781.23 379.62
  L 781.23 292.68
  A 0.40 0.40 0.0 0 1 781.63 292.28
  L 1050.86 292.28
  A 0.40 0.40 0.0 0 1 1051.26 292.68
  L 1051.26 379.62
  A 0.40 0.40 0.0 0 1 1050.86 380.02
  L 961.10 380.02
  A 0.40 0.40 0.0 0 0 960.70 380.42
  Z"
/>
<rect fill="#665ee0" x="1094.87" y="292.23" width="89.14" height="87.28" rx="0.26"/>
<rect fill="#000000" x="1094.94" y="405.36" width="89.10" height="241.40" rx="0.59"/>
<rect fill="#665ee0" x="827.02" y="702.59" width="89.18" height="86.46" rx="0.26"/>
<path fill="#000000" d="
  M 288.06 778.80
  L 288.05 976.49
  A 0.34 0.34 0.0 0 0 288.39 976.83
  L 441.01 976.83
  A 0.34 0.34 0.0 0 1 441.35 977.17
  L 441.35 1056.98
  A 0.34 0.34 0.0 0 1 441.01 1057.32
  L 199.30 1057.32
  A 0.34 0.34 0.0 0 1 198.96 1056.98
  L 198.96 703.10
  A 0.34 0.34 0.0 0 1 199.30 702.76
  L 436.72 702.76
  A 0.34 0.34 0.0 0 1 437.06 703.10
  L 437.07 778.12
  A 0.34 0.34 0.0 0 1 436.73 778.46
  L 288.40 778.46
  A 0.34 0.34 0.0 0 0 288.06 778.80
  Z"
/>
<path fill="#000000" d="
  M 579.03 835.76
  L 671.45 702.89
  A 0.31 0.31 0.0 0 1 671.70 702.76
  L 789.04 702.75
  A 0.31 0.31 0.0 0 1 789.29 703.25
  L 685.06 836.30
  A 0.31 0.31 0.0 0 0 685.03 836.63
  L 794.23 1056.87
  A 0.31 0.31 0.0 0 1 793.95 1057.32
  L 685.14 1057.32
  A 0.31 0.31 0.0 0 1 684.85 1057.13
  L 624.50 911.94
  A 0.31 0.31 0.0 0 0 623.97 911.87
  L 578.53 970.52
  A 0.31 0.31 0.0 0 0 578.47 970.71
  L 578.47 1057.01
  A 0.31 0.31 0.0 0 1 578.16 1057.32
  L 489.87 1057.32
  A 0.31 0.31 0.0 0 1 489.56 1057.01
  L 489.57 703.08
  A 0.31 0.31 0.0 0 1 489.88 702.77
  L 578.16 702.75
  A 0.31 0.31 0.0 0 1 578.47 703.06
  L 578.47 835.58
  A 0.31 0.31 0.0 0 0 579.03 835.76
  Z"
/>
<path fill="#000000" d="
  M 1139.21 790.64
  L 1139.21 1056.99
  A 0.33 0.33 0.0 0 1 1138.88 1057.32
  L 1050.61 1057.32
  A 0.33 0.33 0.0 0 1 1050.28 1056.99
  L 1050.29 790.64
  A 0.33 0.33 0.0 0 0 1049.96 790.31
  L 960.07 790.31
  A 0.33 0.33 0.0 0 1 959.74 789.98
  L 959.74 703.10
  A 0.33 0.33 0.0 0 1 960.07 702.77
  L 1229.40 702.76
  A 0.33 0.33 0.0 0 1 1229.73 703.09
  L 1229.73 789.98
  A 0.33 0.33 0.0 0 1 1229.40 790.31
  L 1139.54 790.31
  A 0.33 0.33 0.0 0 0 1139.21 790.64
  Z"
/>
<rect fill="#000000" x="827.10" y="814.66" width="89.12" height="242.66" rx="0.40"/>
</svg>
