<?xml version="1.0" encoding="UTF-8" standalone="no"?>
<!DOCTYPE svg PUBLIC "-//W3C//DTD SVG 1.1//EN" "http://www.w3.org/Graphics/SVG/1.1/DTD/svg11.dtd">
<svg xmlns="http://www.w3.org/2000/svg" version="1.1" viewBox="0.00 0.00 1448.00 1448.00">
<g stroke-width="2.00" fill="none" stroke-linecap="butt">
<path stroke="#332f70" vector-effect="non-scaling-stroke" d="
  M 616.18 804.40
  C 619.49 803.74 623.27 803.30 625.99 802.44
  C 634.45 799.77 645.39 795.97 653.64 791.31
  Q 658.71 788.44 663.54 785.19
  C 669.33 781.29 673.89 775.36 678.62 770.15
  C 686.73 761.24 691.99 750.02 695.99 738.78
  Q 698.60 731.45 700.85 719.42
  C 703.02 707.79 704.97 699.10 704.54 690.14
  C 704.27 684.67 701.17 676.19 697.86 671.77
  C 694.39 667.13 690.91 661.88 686.94 657.69
  Q 684.36 654.98 683.05 654.39
  Q 671.17 649.12 658.71 645.48
  Q 650.93 643.20 641.55 642.19
  Q 610.30 638.82 578.88 639.57
  Q 570.59 639.77 560.69 640.96
  Q 551.64 642.04 542.58 643.15
  Q 537.89 643.73 534.18 645.28
  C 525.21 649.05 514.19 654.64 508.74 662.96
  C 502.11 673.09 497.04 685.97 497.97 698.22
  Q 498.94 710.93 500.02 723.64
  Q 500.48 729.17 501.97 734.19
  Q 506.80 750.48 511.42 760.60
  Q 520.15 779.70 538.80 792.32
  C 543.40 795.43 546.02 797.33 550.36 798.67
  C 558.37 801.13 567.41 804.80 575.77 805.27
  C 589.11 806.01 603.00 807.05 616.18 804.40"
/>
<path stroke="#332f70" vector-effect="non-scaling-stroke" d="
  M 983.33 656.12
  C 977.71 651.43 970.79 648.15 964.11 645.18
  Q 960.82 643.71 957.16 643.24
  C 946.27 641.86 935.61 640.34 924.56 640.13
  C 908.65 639.83 892.36 638.94 876.61 640.24
  C 864.42 641.24 851.81 641.96 840.38 645.18
  Q 828.70 648.48 817.55 653.33
  C 810.39 656.45 805.56 664.79 800.36 671.85
  C 797.82 675.30 796.76 679.01 795.31 682.96
  C 793.56 687.73 793.27 693.28 793.85 697.75
  Q 794.81 705.01 797.57 719.73
  Q 799.81 731.65 802.49 739.08
  Q 806.27 749.57 811.79 759.28
  C 815.91 766.54 821.84 772.59 827.63 778.80
  C 835.34 787.07 847.13 793.30 857.68 797.15
  C 863.67 799.33 869.79 801.92 876.06 803.14
  C 882.08 804.31 887.90 805.56 893.93 805.75
  Q 907.99 806.19 922.04 805.22
  Q 927.15 804.86 932.30 803.32
  C 941.59 800.55 950.48 798.65 958.75 792.74
  Q 968.27 785.93 975.11 778.50
  C 978.35 774.98 980.84 770.61 983.48 766.43
  Q 986.52 761.61 988.55 756.65
  Q 993.15 745.45 994.32 740.25
  Q 999.01 719.40 1000.42 698.09
  Q 1000.81 692.23 999.80 687.46
  C 997.44 676.31 992.25 663.57 983.33 656.12"
/>
<path stroke="#808080" vector-effect="non-scaling-stroke" d="
  M 501.1902 648.8247
  A 4.37 4.37 0.0 0 0 496.4699 644.8357
  L 471.6970 646.9159
  A 4.37 4.37 0.0 0 0 467.7080 651.6362
  L 467.7298 651.8953
  A 4.37 4.37 0.0 0 0 472.4501 655.8843
  L 497.2230 653.8041
  A 4.37 4.37 0.0 0 0 501.2120 649.0838
  L 501.1902 648.8247"
/>
<path stroke="#808080" vector-effect="non-scaling-stroke" d="
  M 1030.6849 651.5095
  A 4.36 4.36 0.0 0 0 1026.6968 646.8069
  L 1001.8407 644.7634
  A 4.36 4.36 0.0 0 0 997.1381 648.7514
  L 997.1151 649.0305
  A 4.36 4.36 0.0 0 0 1001.1032 653.7331
  L 1025.9593 655.7766
  A 4.36 4.36 0.0 0 0 1030.6619 651.7886
  L 1030.6849 651.5095"
/>
</g>
<rect fill="#665ee0" x="1094.88" y="254.87" width="89.14" height="87.26" rx="0.27"/>
<path fill="#000000" d="
  M 390.94 450.27
  L 390.94 255.52
  Q 390.94 254.98 391.48 254.98
  L 474.21 254.97
  Q 474.71 254.97 474.71 255.46
  L 474.71 608.95
  Q 474.71 609.34 474.31 609.34
  L 391.45 609.34
  Q 390.88 609.34 390.61 608.84
  L 283.71 415.62
  A 0.22 0.22 0.0 0 0 283.29 415.73
  L 283.29 608.77
  Q 283.29 609.34 282.72 609.34
  L 200.29 609.34
  Q 199.74 609.34 199.74 608.79
  L 199.74 255.49
  Q 199.74 254.97 200.26 254.97
  L 282.20 254.98
  A 0.89 0.88 -14.1 0 1 282.98 255.44
  L 390.60 450.36
  A 0.18 0.18 0.0 0 0 390.94 450.27
  Z"
/>
<path fill="#000000" d="
  M 623.65 393.02
  L 734.21 393.02
  A 0.41 0.41 0.0 0 1 734.62 393.43
  L 734.62 464.26
  A 0.41 0.41 0.0 0 1 734.21 464.67
  L 623.65 464.64
  A 0.41 0.41 0.0 0 0 623.24 465.05
  L 623.24 608.93
  A 0.41 0.41 0.0 0 1 622.83 609.34
  L 534.36 609.34
  A 0.41 0.41 0.0 0 1 533.95 608.93
  L 533.95 255.39
  A 0.41 0.41 0.0 0 1 534.36 254.98
  L 753.22 254.97
  A 0.41 0.41 0.0 0 1 753.63 255.38
  L 753.64 330.78
  A 0.41 0.41 0.0 0 1 753.23 331.19
  L 623.65 331.18
  A 0.41 0.41 0.0 0 0 623.24 331.59
  L 623.24 392.61
  A 0.41 0.41 0.0 0 0 623.65 393.02
  Z"
/>
<path fill="#000000" d="
  M 960.70 342.84
  L 960.70 609.03
  A 0.31 0.31 0.0 0 1 960.39 609.34
  L 872.08 609.34
  A 0.31 0.31 0.0 0 1 871.77 609.03
  L 871.77 342.83
  A 0.31 0.31 0.0 0 0 871.46 342.52
  L 781.53 342.52
  A 0.31 0.31 0.0 0 1 781.22 342.21
  L 781.23 255.29
  A 0.31 0.31 0.0 0 1 781.54 254.98
  L 1050.95 254.98
  A 0.31 0.31 0.0 0 1 1051.26 255.29
  L 1051.26 342.21
  A 0.31 0.31 0.0 0 1 1050.95 342.52
  L 961.01 342.53
  A 0.31 0.31 0.0 0 0 960.70 342.84
  Z"
/>
<rect fill="#000000" x="1094.94" y="367.98" width="89.10" height="241.36" rx="0.46"/>
<path fill="#000000" d="
  M 891.85 817.02
  Q 883.00 815.62 874.14 814.23
  Q 867.48 813.18 861.11 811.17
  Q 855.98 809.55 850.86 807.93
  C 841.80 805.07 833.23 800.02 824.80 795.70
  C 819.25 792.87 814.71 787.69 810.23 783.43
  C 803.48 777.02 798.30 767.82 793.05 760.13
  Q 789.64 755.15 787.27 749.85
  Q 774.28 720.79 763.80 690.72
  C 762.56 687.15 758.25 684.45 755.30 682.34
  Q 754.85 682.01 754.29 682.01
  L 744.20 681.93
  Q 743.58 681.93 743.10 682.31
  L 735.79 688.10
  A 1.91 1.84 81.1 0 0 735.18 688.97
  Q 724.43 720.08 710.99 750.10
  C 706.78 759.50 699.96 768.04 694.11 776.52
  Q 691.30 780.58 687.76 783.91
  C 683.21 788.18 678.75 793.24 673.10 796.06
  C 664.55 800.34 656.17 805.30 647.02 808.17
  Q 641.76 809.82 636.51 811.50
  C 627.23 814.46 617.28 815.37 607.69 816.82
  Q 601.75 817.72 595.75 817.59
  C 586.01 817.40 576.21 817.57 566.50 816.32
  C 561.50 815.68 556.70 815.43 551.99 813.80
  Q 537.98 808.95 525.59 800.81
  C 519.76 796.98 514.23 791.68 508.63 786.87
  Q 506.60 785.13 501.25 778.02
  C 497.64 773.22 495.25 767.83 492.57 762.44
  Q 490.53 758.34 489.39 753.75
  C 488.13 748.73 486.71 743.79 485.95 738.68
  Q 480.62 702.80 477.74 688.75
  Q 477.18 686.03 474.82 680.97
  Q 472.88 676.82 470.13 674.29
  Q 465.60 670.13 459.82 667.80
  Q 459.28 667.58 459.22 667.00
  L 456.32 635.32
  A 0.45 0.44 81.4 0 1 456.67 634.84
  C 472.70 631.69 488.58 628.20 504.95 626.51
  C 516.11 625.36 527.43 623.89 538.39 623.43
  C 553.53 622.80 568.37 622.16 583.73 623.00
  Q 604.28 624.11 624.82 625.18
  Q 632.28 625.57 639.55 626.95
  Q 658.68 630.58 677.80 634.26
  Q 686.12 635.87 694.47 638.50
  Q 713.82 644.58 733.26 650.38
  Q 737.66 651.70 741.79 651.80
  C 748.12 651.96 756.72 652.37 762.71 650.29
  C 764.11 649.80 765.70 650.09 767.03 649.69
  Q 786.10 643.98 805.09 638.04
  Q 813.06 635.55 821.17 634.02
  Q 839.75 630.54 858.30 626.94
  Q 865.54 625.53 872.81 625.14
  Q 895.16 623.91 917.51 622.78
  Q 927.30 622.28 937.00 622.58
  C 949.85 622.97 962.61 623.18 975.43 624.52
  Q 984.87 625.51 994.32 626.51
  C 1010.27 628.21 1025.93 631.67 1041.62 634.74
  A 0.50 0.49 8.4 0 1 1042.02 635.27
  L 1039.10 667.00
  A 0.81 0.79 82.1 0 1 1038.61 667.66
  Q 1032.97 669.96 1028.53 673.91
  Q 1025.50 676.61 1023.49 680.92
  Q 1021.14 685.98 1020.39 689.76
  Q 1017.42 704.69 1012.78 735.99
  C 1011.86 742.25 1010.38 748.06 1008.88 754.15
  C 1007.15 761.19 1002.94 768.15 999.58 774.57
  Q 998.39 776.84 992.94 783.09
  C 989.01 787.59 984.34 791.41 979.70 795.44
  Q 976.55 798.18 973.89 799.96
  Q 961.73 808.15 947.96 813.13
  Q 943.30 814.82 937.30 815.55
  C 931.93 816.20 926.62 816.99 921.21 817.11
  Q 909.10 817.36 897.00 817.59
  Q 895.62 817.62 891.85 817.02
  Z
  M 616.18 804.40
  C 619.49 803.74 623.27 803.30 625.99 802.44
  C 634.45 799.77 645.39 795.97 653.64 791.31
  Q 658.71 788.44 663.54 785.19
  C 669.33 781.29 673.89 775.36 678.62 770.15
  C 686.73 761.24 691.99 750.02 695.99 738.78
  Q 698.60 731.45 700.85 719.42
  C 703.02 707.79 704.97 699.10 704.54 690.14
  C 704.27 684.67 701.17 676.19 697.86 671.77
  C 694.39 667.13 690.91 661.88 686.94 657.69
  Q 684.36 654.98 683.05 654.39
  Q 671.17 649.12 658.71 645.48
  Q 650.93 643.20 641.55 642.19
  Q 610.30 638.82 578.88 639.57
  Q 570.59 639.77 560.69 640.96
  Q 551.64 642.04 542.58 643.15
  Q 537.89 643.73 534.18 645.28
  C 525.21 649.05 514.19 654.64 508.74 662.96
  C 502.11 673.09 497.04 685.97 497.97 698.22
  Q 498.94 710.93 500.02 723.64
  Q 500.48 729.17 501.97 734.19
  Q 506.80 750.48 511.42 760.60
  Q 520.15 779.70 538.80 792.32
  C 543.40 795.43 546.02 797.33 550.36 798.67
  C 558.37 801.13 567.41 804.80 575.77 805.27
  C 589.11 806.01 603.00 807.05 616.18 804.40
  Z
  M 983.33 656.12
  C 977.71 651.43 970.79 648.15 964.11 645.18
  Q 960.82 643.71 957.16 643.24
  C 946.27 641.86 935.61 640.34 924.56 640.13
  C 908.65 639.83 892.36 638.94 876.61 640.24
  C 864.42 641.24 851.81 641.96 840.38 645.18
  Q 828.70 648.48 817.55 653.33
  C 810.39 656.45 805.56 664.79 800.36 671.85
  C 797.82 675.30 796.76 679.01 795.31 682.96
  C 793.56 687.73 793.27 693.28 793.85 697.75
  Q 794.81 705.01 797.57 719.73
  Q 799.81 731.65 802.49 739.08
  Q 806.27 749.57 811.79 759.28
  C 815.91 766.54 821.84 772.59 827.63 778.80
  C 835.34 787.07 847.13 793.30 857.68 797.15
  C 863.67 799.33 869.79 801.92 876.06 803.14
  C 882.08 804.31 887.90 805.56 893.93 805.75
  Q 907.99 806.19 922.04 805.22
  Q 927.15 804.86 932.30 803.32
  C 941.59 800.55 950.48 798.65 958.75 792.74
  Q 968.27 785.93 975.11 778.50
  C 978.35 774.98 980.84 770.61 983.48 766.43
  Q 986.52 761.61 988.55 756.65
  Q 993.15 745.45 994.32 740.25
  Q 999.01 719.40 1000.42 698.09
  Q 1000.81 692.23 999.80 687.46
  C 997.44 676.31 992.25 663.57 983.33 656.12
  Z
  M 501.1902 648.8247
  A 4.37 4.37 0.0 0 0 496.4699 644.8357
  L 471.6970 646.9159
  A 4.37 4.37 0.0 0 0 467.7080 651.6362
  L 467.7298 651.8953
  A 4.37 4.37 0.0 0 0 472.4501 655.8843
  L 497.2230 653.8041
  A 4.37 4.37 0.0 0 0 501.2120 649.0838
  L 501.1902 648.8247
  Z
  M 1030.6849 651.5095
  A 4.36 4.36 0.0 0 0 1026.6968 646.8069
  L 1001.8407 644.7634
  A 4.36 4.36 0.0 0 0 997.1381 648.7514
  L 997.1151 649.0305
  A 4.36 4.36 0.0 0 0 1001.1032 653.7331
  L 1025.9593 655.7766
  A 4.36 4.36 0.0 0 0 1030.6619 651.7886
  L 1030.6849 651.5095
  Z"
/>
<path fill="#665ee0" d="
  M 616.18 804.40
  C 603.00 807.05 589.11 806.01 575.77 805.27
  C 567.41 804.80 558.37 801.13 550.36 798.67
  C 546.02 797.33 543.40 795.43 538.80 792.32
  Q 520.15 779.70 511.42 760.60
  Q 506.80 750.48 501.97 734.19
  Q 500.48 729.17 500.02 723.64
  Q 498.94 710.93 497.97 698.22
  C 497.04 685.97 502.11 673.09 508.74 662.96
  C 514.19 654.64 525.21 649.05 534.18 645.28
  Q 537.89 643.73 542.58 643.15
  Q 551.64 642.04 560.69 640.96
  Q 570.59 639.77 578.88 639.57
  Q 610.30 638.82 641.55 642.19
  Q 650.93 643.20 658.71 645.48
  Q 671.17 649.12 683.05 654.39
  Q 684.36 654.98 686.94 657.69
  C 690.91 661.88 694.39 667.13 697.86 671.77
  C 701.17 676.19 704.27 684.67 704.54 690.14
  C 704.97 699.10 703.02 707.79 700.85 719.42
  Q 698.60 731.45 695.99 738.78
  C 691.99 750.02 686.73 761.24 678.62 770.15
  C 673.89 775.36 669.33 781.29 663.54 785.19
  Q 658.71 788.44 653.64 791.31
  C 645.39 795.97 634.45 799.77 625.99 802.44
  C 623.27 803.30 619.49 803.74 616.18 804.40
  Z"
/>
<path fill="#665ee0" d="
  M 964.11 645.18
  C 970.79 648.15 977.71 651.43 983.33 656.12
  C 992.25 663.57 997.44 676.31 999.80 687.46
  Q 1000.81 692.23 1000.42 698.09
  Q 999.01 719.40 994.32 740.25
  Q 993.15 745.45 988.55 756.65
  Q 986.52 761.61 983.48 766.43
  C 980.84 770.61 978.35 774.98 975.11 778.50
  Q 968.27 785.93 958.75 792.74
  C 950.48 798.65 941.59 800.55 932.30 803.32
  Q 927.15 804.86 922.04 805.22
  Q 907.99 806.19 893.93 805.75
  C 887.90 805.56 882.08 804.31 876.06 803.14
  C 869.79 801.92 863.67 799.33 857.68 797.15
  C 847.13 793.30 835.34 787.07 827.63 778.80
  C 821.84 772.59 815.91 766.54 811.79 759.28
  Q 806.27 749.57 802.49 739.08
  Q 799.81 731.65 797.57 719.73
  Q 794.81 705.01 793.85 697.75
  C 793.27 693.28 793.56 687.73 795.31 682.96
  C 796.76 679.01 797.82 675.30 800.36 671.85
  C 805.56 664.79 810.39 656.45 817.55 653.33
  Q 828.70 648.48 840.38 645.18
  C 851.81 641.96 864.42 641.24 876.61 640.24
  C 892.36 638.94 908.65 639.83 924.56 640.13
  C 935.61 640.34 946.27 641.86 957.16 643.24
  Q 960.82 643.71 964.11 645.18
  Z"
/>
<rect fill="#ffffff" x="-16.80" y="-4.50" transform="translate(484.46,650.36) rotate(-4.8)" width="33.60" height="9.00" rx="4.37"/>
<rect fill="#ffffff" x="-16.83" y="-4.50" transform="translate(1013.90,650.27) rotate(4.7)" width="33.66" height="9.00" rx="4.36"/>
<path fill="#000000" d="
  M 671.71 825.21
  L 789.06 825.21
  A 0.31 0.31 0.0 0 1 789.31 825.71
  L 685.06 958.78
  A 0.31 0.31 0.0 0 0 685.03 959.11
  L 794.13 1179.14
  A 0.31 0.31 0.0 0 1 793.85 1179.59
  L 685.06 1179.59
  A 0.31 0.31 0.0 0 1 684.77 1179.40
  L 624.50 1034.41
  A 0.31 0.31 0.0 0 0 623.97 1034.34
  L 578.53 1093.00
  A 0.31 0.31 0.0 0 0 578.47 1093.19
  L 578.47 1179.28
  A 0.31 0.31 0.0 0 1 578.16 1179.59
  L 489.87 1179.59
  A 0.31 0.31 0.0 0 1 489.56 1179.28
  L 489.56 825.52
  A 0.31 0.31 0.0 0 1 489.87 825.21
  L 578.16 825.21
  A 0.31 0.31 0.0 0 1 578.47 825.52
  L 578.47 958.05
  A 0.31 0.31 0.0 0 0 579.03 958.23
  L 671.46 825.34
  A 0.31 0.31 0.0 0 1 671.71 825.21
  Z"
/>
<rect fill="#665ee0" x="827.02" y="825.05" width="89.18" height="86.48" rx="0.29"/>
<path fill="#000000" d="
  M 1139.21 913.18
  L 1139.21 1179.21
  A 0.38 0.38 0.0 0 1 1138.83 1179.59
  L 1050.66 1179.59
  A 0.38 0.38 0.0 0 1 1050.28 1179.21
  L 1050.28 913.18
  A 0.38 0.38 0.0 0 0 1049.90 912.80
  L 960.12 912.81
  A 0.38 0.38 0.0 0 1 959.74 912.43
  L 959.74 825.59
  A 0.38 0.38 0.0 0 1 960.12 825.21
  L 1229.35 825.21
  A 0.38 0.38 0.0 0 1 1229.73 825.59
  L 1229.73 912.44
  A 0.38 0.38 0.0 0 1 1229.35 912.82
  L 1139.59 912.80
  A 0.38 0.38 0.0 0 0 1139.21 913.18
  Z"
/>
<path fill="#000000" d="
  M 288.44 1099.33
  L 440.96 1099.33
  A 0.39 0.39 0.0 0 1 441.35 1099.72
  L 441.35 1179.20
  A 0.39 0.39 0.0 0 1 440.96 1179.59
  L 199.35 1179.59
  A 0.39 0.39 0.0 0 1 198.96 1179.20
  L 198.96 825.60
  A 0.39 0.39 0.0 0 1 199.35 825.21
  L 436.67 825.21
  A 0.39 0.39 0.0 0 1 437.06 825.60
  L 437.06 900.57
  A 0.39 0.39 0.0 0 1 436.67 900.96
  L 288.44 900.95
  A 0.39 0.39 0.0 0 0 288.05 901.34
  L 288.05 1098.94
  A 0.39 0.39 0.0 0 0 288.44 1099.33
  Z"
/>
<rect fill="#000000" x="827.10" y="937.13" width="89.12" height="242.46" rx="0.37"/>
</svg>
