<?xml version="1.0" encoding="UTF-8" standalone="no"?>
<!DOCTYPE svg PUBLIC "-//W3C//DTD SVG 1.1//EN" "http://www.w3.org/Graphics/SVG/1.1/DTD/svg11.dtd">
<svg xmlns="http://www.w3.org/2000/svg" version="1.1" viewBox="0.00 0.00 1448.00 1448.00">
<g stroke-width="2.00" fill="none" stroke-linecap="butt">
<path stroke="#b3aff0" vector-effect="non-scaling-stroke" d="
  M 877.27 815.33
  Q 876.23 814.22 873.56 814.87"
/>
<path stroke="#b3aff0" vector-effect="non-scaling-stroke" d="
  M 680.37 770.69
  C 688.59 761.65 694.10 749.15 698.02 737.66
  Q 700.39 730.70 702.57 718.23
  C 704.10 709.44 706.38 700.27 706.00 691.33
  C 705.73 685.07 702.32 676.45 698.52 671.47
  C 694.54 666.25 689.13 657.12 683.05 654.46
  Q 670.05 648.77 656.36 645.08
  Q 650.66 643.54 643.48 642.97
  Q 632.34 642.07 621.21 641.09
  Q 610.98 640.18 601.25 640.25
  Q 590.84 640.31 580.42 640.41
  Q 570.81 640.51 561.64 641.58
  Q 552.29 642.67 542.96 643.88
  Q 538.44 644.46 534.79 646.04
  C 526.28 649.73 514.83 655.37 509.66 663.43
  C 503.59 672.89 498.01 685.93 498.76 697.34
  Q 499.61 710.28 500.93 723.17
  Q 501.67 730.48 503.53 736.80
  C 506.50 746.91 509.92 757.29 515.11 766.53
  Q 519.20 773.79 521.16 776.31
  Q 529.47 786.96 544.44 796.55
  Q 547.37 798.42 549.78 799.17
  Q 559.17 802.08 568.59 804.97
  Q 572.49 806.17 576.55 806.34
  C 590.67 806.96 604.23 808.04 618.63 805.39
  Q 624.85 804.24 633.14 801.46
  C 645.24 797.41 653.76 793.71 664.16 786.73
  C 670.41 782.54 675.29 776.27 680.37 770.69"
/>
<path stroke="#b3aff0" vector-effect="non-scaling-stroke" d="
  M 990.08 758.52
  Q 994.69 747.33 997.99 735.69
  Q 999.75 729.50 1000.44 722.09
  Q 1001.59 709.81 1002.48 697.49
  Q 1002.84 692.55 1001.97 688.58
  C 999.91 679.17 996.07 669.40 990.20 661.63
  C 984.77 654.43 974.28 649.30 966.11 645.81
  Q 962.55 644.28 958.13 643.74
  Q 949.17 642.63 940.20 641.54
  Q 931.19 640.45 922.23 640.35
  C 908.11 640.20 894.19 639.77 880.03 640.99
  Q 868.71 641.97 857.38 642.92
  Q 850.11 643.54 844.29 645.13
  Q 831.19 648.73 818.71 654.14
  C 811.95 657.06 806.82 666.01 802.64 671.53
  C 799.32 675.91 797.97 680.44 796.17 685.48
  C 794.47 690.23 795.08 697.02 795.92 702.03
  C 797.93 714.13 799.67 727.22 803.38 738.06
  C 807.40 749.82 812.85 761.59 821.21 770.95
  C 826.26 776.60 831.18 782.75 837.51 786.89
  Q 842.86 790.39 848.48 793.42
  C 856.17 797.57 867.62 801.51 874.51 803.52
  Q 884.08 806.32 896.68 806.93
  C 904.58 807.32 914.19 806.64 922.94 806.39
  C 931.12 806.16 939.53 802.83 947.29 800.41
  Q 953.05 798.62 957.25 796.03
  C 965.37 791.01 972.93 784.47 979.19 777.24
  Q 981.26 774.85 982.86 772.06
  C 985.42 767.59 988.15 763.21 990.08 758.52"
/>
<path stroke="#808080" vector-effect="non-scaling-stroke" d="
  M 502.1100 649.5005
  A 4.37 4.37 0.0 0 0 497.3897 645.5115
  L 472.5172 647.6001
  A 4.37 4.37 0.0 0 0 468.5282 652.3204
  L 468.5500 652.5795
  A 4.37 4.37 0.0 0 0 473.2703 656.5685
  L 498.1428 654.4799
  A 4.37 4.37 0.0 0 0 502.1318 649.7596
  L 502.1100 649.5005"
/>
<path stroke="#808080" vector-effect="non-scaling-stroke" d="
  M 1032.7340 652.2011
  A 4.38 4.38 0.0 0 0 1028.7276 647.4769
  L 1003.8715 645.4334
  A 4.38 4.38 0.0 0 0 999.1473 649.4398
  L 999.1260 649.6989
  A 4.38 4.38 0.0 0 0 1003.1324 654.4231
  L 1027.9885 656.4666
  A 4.38 4.38 0.0 0 0 1032.7127 652.4602
  L 1032.7340 652.2011"
/>
</g>
<rect fill="#665ee0" x="1094.87" y="257.44" width="89.14" height="87.28" rx="0.27"/>
<path fill="#ffffff" d="
  M 391.28 257.50
  L 474.44 257.50
  A 0.30 0.30 0.0 0 1 474.74 257.80
  L 474.72 611.58
  A 0.30 0.30 0.0 0 1 474.42 611.88
  L 391.10 611.87
  A 0.30 0.30 0.0 0 1 390.83 611.72
  L 283.82 418.29
  A 0.30 0.30 0.0 0 0 283.26 418.43
  L 283.26 611.58
  A 0.30 0.30 0.0 0 1 282.96 611.88
  L 200.05 611.87
  A 0.30 0.30 0.0 0 1 199.75 611.57
  L 199.75 257.80
  A 0.30 0.30 0.0 0 1 200.05 257.50
  L 282.50 257.49
  A 0.30 0.30 0.0 0 1 282.77 257.65
  L 390.42 452.62
  A 0.30 0.30 0.0 0 0 390.98 452.48
  L 390.98 257.80
  A 0.30 0.30 0.0 0 1 391.28 257.50
  Z"
/>
<path fill="#ffffff" d="
  M 623.24 467.57
  L 623.23 611.44
  A 0.44 0.44 0.0 0 1 622.79 611.88
  L 534.43 611.87
  A 0.44 0.44 0.0 0 1 533.99 611.43
  L 533.99 257.93
  A 0.44 0.44 0.0 0 1 534.43 257.49
  L 753.17 257.50
  A 0.44 0.44 0.0 0 1 753.61 257.94
  L 753.64 333.24
  A 0.44 0.44 0.0 0 1 753.20 333.68
  L 623.68 333.67
  A 0.44 0.44 0.0 0 0 623.24 334.11
  L 623.23 395.12
  A 0.44 0.44 0.0 0 0 623.67 395.56
  L 734.20 395.55
  A 0.44 0.44 0.0 0 1 734.64 395.99
  L 734.61 466.69
  A 0.44 0.44 0.0 0 1 734.17 467.13
  L 623.68 467.13
  A 0.44 0.44 0.0 0 0 623.24 467.57
  Z"
/>
<path fill="#ffffff" d="
  M 960.73 345.41
  L 960.73 611.51
  A 0.37 0.37 0.0 0 1 960.36 611.88
  L 872.17 611.87
  A 0.37 0.37 0.0 0 1 871.80 611.50
  L 871.80 345.41
  A 0.37 0.37 0.0 0 0 871.43 345.04
  L 781.62 345.04
  A 0.37 0.37 0.0 0 1 781.25 344.67
  L 781.24 257.86
  A 0.37 0.37 0.0 0 1 781.61 257.49
  L 1050.88 257.50
  A 0.37 0.37 0.0 0 1 1051.25 257.87
  L 1051.25 344.67
  A 0.37 0.37 0.0 0 1 1050.88 345.04
  L 961.10 345.04
  A 0.37 0.37 0.0 0 0 960.73 345.41
  Z"
/>
<rect fill="#ffffff" x="1094.99" y="370.51" width="89.02" height="241.36" rx="0.27"/>
<path fill="#ffffff" d="
  M 877.27 815.33
  Q 876.23 814.22 873.56 814.87
  C 867.71 814.05 861.98 811.99 854.99 809.68
  Q 847.07 807.06 841.24 804.27
  C 832.50 800.07 823.65 795.63 816.54 788.83
  C 813.10 785.54 809.63 782.63 806.86 778.74
  Q 800.66 770.04 794.71 761.17
  Q 791.05 755.71 788.37 749.70
  Q 775.59 720.97 765.23 691.27
  C 764.04 687.85 759.56 685.07 756.75 683.03
  Q 756.32 682.72 755.80 682.72
  L 745.62 682.66
  Q 745.11 682.65 744.69 682.96
  C 741.78 685.11 737.46 687.71 736.16 691.21
  C 730.67 705.92 725.40 720.91 719.19 735.17
  C 716.11 742.23 713.28 750.82 708.48 756.86
  Q 694.97 773.84 682.08 791.29
  C 680.05 794.03 675.84 797.95 672.72 799.42
  C 663.39 803.79 654.18 808.47 644.36 811.53
  C 638.38 813.39 632.55 815.36 626.43 816.37
  C 606.39 819.66 588.94 818.46 569.99 818.12
  Q 563.54 818.00 555.63 815.56
  Q 535.94 809.50 522.50 798.98
  Q 519.92 796.96 512.70 790.57
  C 508.51 786.87 505.42 783.02 502.01 778.73
  C 498.63 774.48 496.44 769.34 494.02 764.50
  C 490.16 756.82 488.02 747.34 486.74 738.87
  Q 483.47 717.16 479.70 695.52
  C 478.24 687.13 475.44 677.24 468.56 672.17
  C 466.35 670.54 463.35 669.72 460.67 668.46
  Q 460.10 668.19 460.04 667.56
  L 457.22 636.97
  Q 457.16 636.37 457.75 636.25
  C 473.87 632.88 490.09 628.92 506.43 627.12
  Q 515.37 626.13 524.32 625.22
  C 537.58 623.86 550.92 623.66 564.25 623.31
  Q 574.07 623.05 584.25 623.57
  Q 606.84 624.72 629.42 626.02
  Q 636.64 626.44 643.97 627.87
  Q 659.42 630.87 674.90 633.67
  Q 683.03 635.14 690.63 637.49
  Q 708.07 642.89 725.50 648.36
  Q 736.36 651.77 748.68 651.64
  Q 754.92 651.57 764.65 649.49
  C 773.78 647.54 782.91 645.84 791.80 643.15
  Q 805.76 638.93 819.70 634.64
  C 820.76 634.31 821.76 633.78 822.81 633.58
  Q 845.53 629.16 868.44 625.89
  Q 877.00 624.67 886.63 624.42
  C 903.91 623.99 921.21 623.10 938.50 623.11
  C 945.43 623.11 952.39 622.57 959.15 623.20
  Q 993.43 626.36 1005.75 628.22
  Q 1014.03 629.47 1043.73 635.51
  Q 1044.15 635.59 1044.11 636.02
  L 1041.23 666.76
  A 0.92 0.91 -11.3 0 1 1040.75 667.47
  C 1037.35 669.31 1033.69 670.74 1031.13 673.86
  C 1029.65 675.66 1027.74 677.02 1026.74 679.07
  Q 1023.27 686.23 1022.61 689.42
  Q 1019.96 702.30 1014.52 738.38
  C 1013.62 744.40 1012.05 750.15 1010.55 756.05
  C 1009.22 761.28 1006.52 765.77 1004.11 770.53
  C 1000.40 777.86 994.81 785.30 988.55 790.42
  C 979.01 798.21 968.51 806.40 957.15 811.27
  C 949.36 814.61 939.86 815.67 931.09 817.15
  Q 925.20 818.14 918.58 818.22
  C 911.77 818.30 904.58 818.79 898.14 818.25
  Q 887.68 817.37 877.27 815.33
  Z
  M 680.37 770.69
  C 688.59 761.65 694.10 749.15 698.02 737.66
  Q 700.39 730.70 702.57 718.23
  C 704.10 709.44 706.38 700.27 706.00 691.33
  C 705.73 685.07 702.32 676.45 698.52 671.47
  C 694.54 666.25 689.13 657.12 683.05 654.46
  Q 670.05 648.77 656.36 645.08
  Q 650.66 643.54 643.48 642.97
  Q 632.34 642.07 621.21 641.09
  Q 610.98 640.18 601.25 640.25
  Q 590.84 640.31 580.42 640.41
  Q 570.81 640.51 561.64 641.58
  Q 552.29 642.67 542.96 643.88
  Q 538.44 644.46 534.79 646.04
  C 526.28 649.73 514.83 655.37 509.66 663.43
  C 503.59 672.89 498.01 685.93 498.76 697.34
  Q 499.61 710.28 500.93 723.17
  Q 501.67 730.48 503.53 736.80
  C 506.50 746.91 509.92 757.29 515.11 766.53
  Q 519.20 773.79 521.16 776.31
  Q 529.47 786.96 544.44 796.55
  Q 547.37 798.42 549.78 799.17
  Q 559.17 802.08 568.59 804.97
  Q 572.49 806.17 576.55 806.34
  C 590.67 806.96 604.23 808.04 618.63 805.39
  Q 624.85 804.24 633.14 801.46
  C 645.24 797.41 653.76 793.71 664.16 786.73
  C 670.41 782.54 675.29 776.27 680.37 770.69
  Z
  M 990.08 758.52
  Q 994.69 747.33 997.99 735.69
  Q 999.75 729.50 1000.44 722.09
  Q 1001.59 709.81 1002.48 697.49
  Q 1002.84 692.55 1001.97 688.58
  C 999.91 679.17 996.07 669.40 990.20 661.63
  C 984.77 654.43 974.28 649.30 966.11 645.81
  Q 962.55 644.28 958.13 643.74
  Q 949.17 642.63 940.20 641.54
  Q 931.19 640.45 922.23 640.35
  C 908.11 640.20 894.19 639.77 880.03 640.99
  Q 868.71 641.97 857.38 642.92
  Q 850.11 643.54 844.29 645.13
  Q 831.19 648.73 818.71 654.14
  C 811.95 657.06 806.82 666.01 802.64 671.53
  C 799.32 675.91 797.97 680.44 796.17 685.48
  C 794.47 690.23 795.08 697.02 795.92 702.03
  C 797.93 714.13 799.67 727.22 803.38 738.06
  C 807.40 749.82 812.85 761.59 821.21 770.95
  C 826.26 776.60 831.18 782.75 837.51 786.89
  Q 842.86 790.39 848.48 793.42
  C 856.17 797.57 867.62 801.51 874.51 803.52
  Q 884.08 806.32 896.68 806.93
  C 904.58 807.32 914.19 806.64 922.94 806.39
  C 931.12 806.16 939.53 802.83 947.29 800.41
  Q 953.05 798.62 957.25 796.03
  C 965.37 791.01 972.93 784.47 979.19 777.24
  Q 981.26 774.85 982.86 772.06
  C 985.42 767.59 988.15 763.21 990.08 758.52
  Z
  M 502.1100 649.5005
  A 4.37 4.37 0.0 0 0 497.3897 645.5115
  L 472.5172 647.6001
  A 4.37 4.37 0.0 0 0 468.5282 652.3204
  L 468.5500 652.5795
  A 4.37 4.37 0.0 0 0 473.2703 656.5685
  L 498.1428 654.4799
  A 4.37 4.37 0.0 0 0 502.1318 649.7596
  L 502.1100 649.5005
  Z
  M 1032.7340 652.2011
  A 4.38 4.38 0.0 0 0 1028.7276 647.4769
  L 1003.8715 645.4334
  A 4.38 4.38 0.0 0 0 999.1473 649.4398
  L 999.1260 649.6989
  A 4.38 4.38 0.0 0 0 1003.1324 654.4231
  L 1027.9885 656.4666
  A 4.38 4.38 0.0 0 0 1032.7127 652.4602
  L 1032.7340 652.2011
  Z"
/>
<path fill="#665ee0" d="
  M 698.02 737.66
  C 694.10 749.15 688.59 761.65 680.37 770.69
  C 675.29 776.27 670.41 782.54 664.16 786.73
  C 653.76 793.71 645.24 797.41 633.14 801.46
  Q 624.85 804.24 618.63 805.39
  C 604.23 808.04 590.67 806.96 576.55 806.34
  Q 572.49 806.17 568.59 804.97
  Q 559.17 802.08 549.78 799.17
  Q 547.37 798.42 544.44 796.55
  Q 529.47 786.96 521.16 776.31
  Q 519.20 773.79 515.11 766.53
  C 509.92 757.29 506.50 746.91 503.53 736.80
  Q 501.67 730.48 500.93 723.17
  Q 499.61 710.28 498.76 697.34
  C 498.01 685.93 503.59 672.89 509.66 663.43
  C 514.83 655.37 526.28 649.73 534.79 646.04
  Q 538.44 644.46 542.96 643.88
  Q 552.29 642.67 561.64 641.58
  Q 570.81 640.51 580.42 640.41
  Q 590.84 640.31 601.25 640.25
  Q 610.98 640.18 621.21 641.09
  Q 632.34 642.07 643.48 642.97
  Q 650.66 643.54 656.36 645.08
  Q 670.05 648.77 683.05 654.46
  C 689.13 657.12 694.54 666.25 698.52 671.47
  C 702.32 676.45 705.73 685.07 706.00 691.33
  C 706.38 700.27 704.10 709.44 702.57 718.23
  Q 700.39 730.70 698.02 737.66
  Z"
/>
<path fill="#665ee0" d="
  M 990.08 758.52
  C 988.15 763.21 985.42 767.59 982.86 772.06
  Q 981.26 774.85 979.19 777.24
  C 972.93 784.47 965.37 791.01 957.25 796.03
  Q 953.05 798.62 947.29 800.41
  C 939.53 802.83 931.12 806.16 922.94 806.39
  C 914.19 806.64 904.58 807.32 896.68 806.93
  Q 884.08 806.32 874.51 803.52
  C 867.62 801.51 856.17 797.57 848.48 793.42
  Q 842.86 790.39 837.51 786.89
  C 831.18 782.75 826.26 776.60 821.21 770.95
  C 812.85 761.59 807.40 749.82 803.38 738.06
  C 799.67 727.22 797.93 714.13 795.92 702.03
  C 795.08 697.02 794.47 690.23 796.17 685.48
  C 797.97 680.44 799.32 675.91 802.64 671.53
  C 806.82 666.01 811.95 657.06 818.71 654.14
  Q 831.19 648.73 844.29 645.13
  Q 850.11 643.54 857.38 642.92
  Q 868.71 641.97 880.03 640.99
  C 894.19 639.77 908.11 640.20 922.23 640.35
  Q 931.19 640.45 940.20 641.54
  Q 949.17 642.63 958.13 643.74
  Q 962.55 644.28 966.11 645.81
  C 974.28 649.30 984.77 654.43 990.20 661.63
  C 996.07 669.40 999.91 679.17 1001.97 688.58
  Q 1002.84 692.55 1002.48 697.49
  Q 1001.59 709.81 1000.44 722.09
  Q 999.75 729.50 997.99 735.69
  Q 994.69 747.33 990.08 758.52
  Z"
/>
<rect fill="#000000" x="-16.85" y="-4.50" transform="translate(485.33,651.04) rotate(-4.8)" width="33.70" height="9.00" rx="4.37"/>
<rect fill="#000000" x="-16.85" y="-4.51" transform="translate(1015.93,650.95) rotate(4.7)" width="33.70" height="9.02" rx="4.38"/>
<path fill="#665ee0" d="
  M 877.27 815.33
  L 873.56 814.87
  Q 876.23 814.22 877.27 815.33
  Z"
/>
<path fill="#ffffff" d="
  M 288.35 1106.99
  L 440.95 1106.98
  A 0.34 0.34 0.0 0 1 441.29 1107.32
  L 441.29 1186.91
  A 0.34 0.34 0.0 0 1 440.95 1187.25
  L 199.34 1187.25
  A 0.34 0.34 0.0 0 1 199.00 1186.91
  L 199.00 833.19
  A 0.34 0.34 0.0 0 1 199.34 832.85
  L 436.67 832.84
  A 0.34 0.34 0.0 0 1 437.01 833.18
  L 437.01 908.16
  A 0.34 0.34 0.0 0 1 436.67 908.50
  L 288.35 908.51
  A 0.34 0.34 0.0 0 0 288.01 908.85
  L 288.01 1106.65
  A 0.34 0.34 0.0 0 0 288.35 1106.99
  Z"
/>
<path fill="#ffffff" d="
  M 671.74 832.85
  L 788.95 832.84
  A 0.33 0.33 0.0 0 1 789.21 833.37
  L 685.03 966.37
  A 0.33 0.33 0.0 0 0 684.99 966.72
  L 794.10 1186.77
  A 0.33 0.33 0.0 0 1 793.81 1187.25
  L 685.13 1187.25
  A 0.33 0.33 0.0 0 1 684.83 1187.05
  L 624.53 1041.98
  A 0.33 0.33 0.0 0 0 623.96 1041.91
  L 578.52 1100.57
  A 0.33 0.33 0.0 0 0 578.45 1100.77
  L 578.48 1186.92
  A 0.33 0.33 0.0 0 1 578.15 1187.25
  L 489.95 1187.25
  A 0.33 0.33 0.0 0 1 489.62 1186.92
  L 489.62 833.18
  A 0.33 0.33 0.0 0 1 489.95 832.85
  L 578.13 832.84
  A 0.33 0.33 0.0 0 1 578.46 833.17
  L 578.44 965.68
  A 0.33 0.33 0.0 0 0 579.04 965.87
  L 671.47 832.99
  A 0.33 0.33 0.0 0 1 671.74 832.85
  Z"
/>
<rect fill="#665ee0" x="827.02" y="832.71" width="89.18" height="86.44" rx="0.28"/>
<path fill="#ffffff" d="
  M 1139.18 920.80
  L 1139.18 1186.83
  A 0.42 0.42 0.0 0 1 1138.76 1187.25
  L 1050.69 1187.24
  A 0.42 0.42 0.0 0 1 1050.27 1186.82
  L 1050.28 920.78
  A 0.42 0.42 0.0 0 0 1049.86 920.36
  L 960.17 920.39
  A 0.42 0.42 0.0 0 1 959.75 919.97
  L 959.75 833.27
  A 0.42 0.42 0.0 0 1 960.17 832.85
  L 1229.28 832.84
  A 0.42 0.42 0.0 0 1 1229.70 833.26
  L 1229.73 919.96
  A 0.42 0.42 0.0 0 1 1229.31 920.38
  L 1139.60 920.38
  A 0.42 0.42 0.0 0 0 1139.18 920.80
  Z"
/>
<rect fill="#ffffff" x="827.13" y="944.75" width="89.06" height="242.50" rx="0.27"/>
</svg>
