<?xml version="1.0" encoding="UTF-8" standalone="no"?>
<!DOCTYPE svg PUBLIC "-//W3C//DTD SVG 1.1//EN" "http://www.w3.org/Graphics/SVG/1.1/DTD/svg11.dtd">
<svg xmlns="http://www.w3.org/2000/svg" version="1.1" viewBox="0.00 0.00 1448.00 1448.00">
<path fill="#ffffff" d="
  M 282.96 646.75
  L 200.05 646.75
  A 0.30 0.30 0.0 0 1 199.75 646.45
  L 199.75 292.58
  A 0.30 0.30 0.0 0 1 200.05 292.28
  L 282.46 292.29
  A 0.30 0.30 0.0 0 1 282.73 292.44
  L 390.42 487.49
  A 0.30 0.30 0.0 0 0 390.98 487.35
  L 390.98 292.59
  A 0.30 0.30 0.0 0 1 391.28 292.29
  L 474.43 292.31
  A 0.30 0.30 0.0 0 1 474.73 292.61
  L 474.73 646.46
  A 0.30 0.30 0.0 0 1 474.43 646.76
  L 391.10 646.75
  A 0.30 0.30 0.0 0 1 390.83 646.60
  L 283.82 453.16
  A 0.30 0.30 0.0 0 0 283.26 453.30
  L 283.26 646.45
  A 0.30 0.30 0.0 0 1 282.96 646.75
  Z"
/>
<path fill="#ffffff" d="
  M 623.23 502.44
  L 623.24 646.32
  A 0.43 0.43 0.0 0 1 622.81 646.75
  L 534.42 646.75
  A 0.43 0.43 0.0 0 1 533.99 646.32
  L 533.99 292.72
  A 0.43 0.43 0.0 0 1 534.42 292.29
  L 753.20 292.31
  A 0.43 0.43 0.0 0 1 753.63 292.74
  L 753.61 368.09
  A 0.43 0.43 0.0 0 1 753.18 368.52
  L 623.67 368.51
  A 0.43 0.43 0.0 0 0 623.24 368.94
  L 623.23 430.04
  A 0.43 0.43 0.0 0 0 623.66 430.47
  L 734.20 430.46
  A 0.43 0.43 0.0 0 1 734.63 430.89
  L 734.62 501.58
  A 0.43 0.43 0.0 0 1 734.19 502.01
  L 623.66 502.01
  A 0.43 0.43 0.0 0 0 623.23 502.44
  Z"
/>
<path fill="#ffffff" d="
  M 960.73 380.29
  L 960.73 646.44
  A 0.32 0.32 0.0 0 1 960.41 646.76
  L 872.12 646.75
  A 0.32 0.32 0.0 0 1 871.80 646.43
  L 871.80 380.29
  A 0.32 0.32 0.0 0 0 871.48 379.97
  L 781.57 379.97
  A 0.32 0.32 0.0 0 1 781.25 379.65
  L 781.24 292.62
  A 0.32 0.32 0.0 0 1 781.56 292.30
  L 1050.93 292.30
  A 0.32 0.32 0.0 0 1 1051.25 292.62
  L 1051.25 379.66
  A 0.32 0.32 0.0 0 1 1050.93 379.98
  L 961.05 379.97
  A 0.32 0.32 0.0 0 0 960.73 380.29
  Z"
/>
<rect fill="#665ee0" x="1094.87" y="292.24" width="89.14" height="87.28" rx="0.26"/>
<rect fill="#ffffff" x="1094.99" y="405.39" width="89.02" height="241.36" rx="0.33"/>
<rect fill="#665ee0" x="827.02" y="702.59" width="89.18" height="86.46" rx="0.26"/>
<path fill="#ffffff" d="
  M 288.32 976.87
  L 440.98 976.87
  A 0.31 0.31 0.0 0 1 441.29 977.18
  L 441.30 1056.97
  A 0.31 0.31 0.0 0 1 440.99 1057.28
  L 199.31 1057.28
  A 0.31 0.31 0.0 0 1 199.00 1056.97
  L 199.00 703.06
  A 0.31 0.31 0.0 0 1 199.31 702.75
  L 436.70 702.75
  A 0.31 0.31 0.0 0 1 437.01 703.06
  L 437.01 778.10
  A 0.31 0.31 0.0 0 1 436.70 778.41
  L 288.32 778.42
  A 0.31 0.31 0.0 0 0 288.01 778.73
  L 288.01 976.56
  A 0.31 0.31 0.0 0 0 288.32 976.87
  Z"
/>
<path fill="#ffffff" d="
  M 579.04 835.80
  L 671.48 702.89
  A 0.33 0.33 0.0 0 1 671.75 702.75
  L 788.96 702.75
  A 0.33 0.33 0.0 0 1 789.22 703.28
  L 685.03 836.29
  A 0.33 0.33 0.0 0 0 684.99 836.64
  L 794.15 1056.80
  A 0.33 0.33 0.0 0 1 793.86 1057.28
  L 685.17 1057.28
  A 0.33 0.33 0.0 0 1 684.87 1057.08
  L 624.53 911.90
  A 0.33 0.33 0.0 0 0 623.96 911.83
  L 578.52 970.49
  A 0.33 0.33 0.0 0 0 578.45 970.69
  L 578.49 1056.95
  A 0.33 0.33 0.0 0 1 578.16 1057.28
  L 489.95 1057.28
  A 0.33 0.33 0.0 0 1 489.62 1056.95
  L 489.62 703.08
  A 0.33 0.33 0.0 0 1 489.95 702.75
  L 578.14 702.75
  A 0.33 0.33 0.0 0 1 578.47 703.08
  L 578.44 835.61
  A 0.33 0.33 0.0 0 0 579.04 835.80
  Z"
/>
<path fill="#ffffff" d="
  M 1139.18 790.57
  L 1139.18 1056.98
  A 0.30 0.30 0.0 0 1 1138.88 1057.28
  L 1050.57 1057.28
  A 0.30 0.30 0.0 0 1 1050.27 1056.98
  L 1050.28 790.57
  A 0.30 0.30 0.0 0 0 1049.98 790.27
  L 960.05 790.27
  A 0.30 0.30 0.0 0 1 959.75 789.97
  L 959.75 703.05
  A 0.30 0.30 0.0 0 1 960.05 702.75
  L 1229.41 702.75
  A 0.30 0.30 0.0 0 1 1229.71 703.05
  L 1229.72 789.97
  A 0.30 0.30 0.0 0 1 1229.42 790.27
  L 1139.48 790.27
  A 0.30 0.30 0.0 0 0 1139.18 790.57
  Z"
/>
<rect fill="#ffffff" x="827.12" y="814.73" width="89.06" height="242.54" rx="0.27"/>
</svg>
