<svg width="1031" height="766" viewBox="0 0 1031 766" fill="none" xmlns="http://www.w3.org/2000/svg">
<g clip-path="url(#clip0_15106_95)">
<path d="M83.96 354.75H1.05C0.970438 354.75 0.894136 354.718 0.837875 354.662C0.781614 354.606 0.75 354.53 0.75 354.45V0.580017C0.75 0.500452 0.781614 0.42415 0.837875 0.367889C0.894136 0.311628 0.970438 0.280029 1.05 0.280029L83.46 0.290039C83.5144 0.288208 83.5682 0.301184 83.6158 0.327606C83.6633 0.354029 83.7028 0.392897 83.73 0.440033L191.42 195.49C191.453 195.547 191.503 195.591 191.563 195.617C191.623 195.642 191.69 195.647 191.753 195.632C191.816 195.616 191.873 195.58 191.914 195.529C191.955 195.478 191.978 195.415 191.98 195.35V0.590027C191.98 0.510462 192.012 0.43416 192.068 0.377899C192.124 0.321638 192.2 0.290039 192.28 0.290039L275.43 0.310028C275.51 0.310028 275.586 0.341627 275.642 0.397888C275.698 0.454149 275.73 0.530451 275.73 0.610016V354.46C275.73 354.54 275.698 354.616 275.642 354.672C275.586 354.728 275.51 354.76 275.43 354.76L192.1 354.75C192.046 354.752 191.992 354.739 191.944 354.712C191.897 354.686 191.857 354.647 191.83 354.6L84.82 161.16C84.7875 161.103 84.7374 161.059 84.6773 161.033C84.6172 161.008 84.5504 161.003 84.4871 161.018C84.4237 161.034 84.3673 161.07 84.3263 161.121C84.2853 161.172 84.2621 161.235 84.26 161.3V354.45C84.26 354.489 84.2522 354.528 84.2372 354.565C84.2221 354.601 84.2 354.634 84.1721 354.662C84.1443 354.69 84.1112 354.712 84.0748 354.727C84.0384 354.742 83.9994 354.75 83.96 354.75Z" fill="white"/>
<path d="M424.23 210.44L424.24 354.32C424.24 354.377 424.229 354.432 424.208 354.485C424.186 354.537 424.154 354.584 424.114 354.624C424.074 354.664 424.027 354.696 423.975 354.717C423.923 354.739 423.867 354.75 423.81 354.75H335.42C335.306 354.75 335.197 354.705 335.116 354.624C335.036 354.543 334.99 354.434 334.99 354.32V0.720032C334.99 0.605989 335.036 0.496626 335.116 0.415985C335.197 0.335344 335.306 0.290039 335.42 0.290039L554.2 0.310028C554.314 0.310028 554.424 0.355333 554.504 0.435974C554.585 0.516615 554.63 0.625978 554.63 0.740021L554.61 76.09C554.61 76.2041 554.565 76.3134 554.484 76.3941C554.404 76.4747 554.294 76.52 554.18 76.52L424.67 76.51C424.556 76.51 424.447 76.5553 424.366 76.636C424.286 76.7166 424.24 76.826 424.24 76.94L424.23 138.04C424.23 138.154 424.276 138.263 424.356 138.344C424.437 138.425 424.546 138.47 424.66 138.47L535.2 138.46C535.314 138.46 535.424 138.505 535.504 138.586C535.585 138.667 535.63 138.776 535.63 138.89L535.62 209.58C535.62 209.694 535.575 209.803 535.494 209.884C535.414 209.965 535.304 210.01 535.19 210.01H424.66C424.546 210.01 424.437 210.055 424.356 210.136C424.276 210.217 424.23 210.326 424.23 210.44Z" fill="white"/>
<path d="M761.73 88.29V354.44C761.73 354.525 761.697 354.606 761.637 354.666C761.577 354.726 761.495 354.76 761.41 354.76L673.12 354.75C673.078 354.75 673.037 354.742 672.998 354.726C672.959 354.71 672.924 354.686 672.894 354.656C672.864 354.627 672.841 354.591 672.825 354.552C672.809 354.514 672.8 354.472 672.8 354.43V88.29C672.8 88.2051 672.767 88.1237 672.707 88.0637C672.647 88.0037 672.565 87.97 672.48 87.97H582.57C582.485 87.97 582.404 87.9363 582.344 87.8763C582.284 87.8163 582.25 87.7349 582.25 87.65L582.24 0.619995C582.24 0.535126 582.274 0.453749 582.334 0.393738C582.394 0.333726 582.475 0.299988 582.56 0.299988H851.93C852.015 0.299988 852.096 0.333726 852.156 0.393738C852.217 0.453749 852.25 0.535126 852.25 0.619995V87.66C852.25 87.7449 852.217 87.8262 852.156 87.8863C852.096 87.9463 852.015 87.98 851.93 87.98L762.05 87.97C761.965 87.97 761.884 88.0037 761.824 88.0637C761.764 88.1237 761.73 88.2051 761.73 88.29Z" fill="white"/>
<path d="M984.75 0.23999H896.13C895.987 0.23999 895.87 0.356406 895.87 0.5V87.26C895.87 87.4036 895.987 87.52 896.13 87.52H984.75C984.894 87.52 985.01 87.4036 985.01 87.26V0.5C985.01 0.356406 984.894 0.23999 984.75 0.23999Z" fill="white"/>
<path d="M984.68 113.39H896.32C896.138 113.39 895.99 113.538 895.99 113.72V354.42C895.99 354.602 896.138 354.75 896.32 354.75H984.68C984.863 354.75 985.01 354.602 985.01 354.42V113.72C985.01 113.538 984.863 113.39 984.68 113.39Z" fill="white"/>
<path d="M716.94 410.59H628.28C628.136 410.59 628.02 410.706 628.02 410.85V496.79C628.02 496.934 628.136 497.05 628.28 497.05H716.94C717.083 497.05 717.2 496.934 717.2 496.79V410.85C717.2 410.706 717.083 410.59 716.94 410.59Z" fill="white"/>
<path d="M89.32 684.87H241.98C242.062 684.87 242.141 684.903 242.199 684.961C242.257 685.019 242.29 685.098 242.29 685.18L242.3 764.97C242.3 765.052 242.267 765.131 242.209 765.189C242.151 765.247 242.072 765.28 241.99 765.28H0.309998C0.22778 765.28 0.148926 765.247 0.0907898 765.189C0.0326535 765.131 0 765.052 0 764.97V411.06C0 410.978 0.0326535 410.899 0.0907898 410.841C0.148926 410.783 0.22778 410.75 0.309998 410.75H237.7C237.782 410.75 237.861 410.783 237.919 410.841C237.977 410.899 238.01 410.978 238.01 411.06V486.1C238.01 486.182 237.977 486.261 237.919 486.319C237.861 486.377 237.782 486.41 237.7 486.41L89.32 486.42C89.2793 486.42 89.239 486.428 89.2014 486.444C89.1637 486.459 89.1296 486.482 89.1008 486.511C89.072 486.54 89.0492 486.574 89.0336 486.611C89.018 486.649 89.01 486.689 89.01 486.73V684.56C89.01 684.642 89.0427 684.721 89.1008 684.779C89.1589 684.837 89.2378 684.87 89.32 684.87Z" fill="white"/>
<path d="M380.04 543.8L472.48 410.89C472.511 410.847 472.551 410.811 472.598 410.787C472.645 410.763 472.697 410.75 472.75 410.75H589.96C590.021 410.75 590.081 410.768 590.133 410.801C590.185 410.833 590.227 410.88 590.254 410.935C590.281 410.99 590.292 411.051 590.286 411.112C590.28 411.173 590.257 411.231 590.22 411.28L486.03 544.29C485.991 544.339 485.967 544.397 485.96 544.459C485.952 544.521 485.963 544.584 485.99 544.64L595.15 764.8C595.176 764.85 595.188 764.906 595.186 764.962C595.184 765.018 595.168 765.073 595.139 765.121C595.11 765.169 595.069 765.209 595.02 765.236C594.971 765.264 594.916 765.279 594.86 765.28H486.17C486.106 765.279 486.044 765.26 485.99 765.225C485.937 765.189 485.895 765.139 485.87 765.08L425.53 619.9C425.508 619.846 425.471 619.799 425.425 619.764C425.379 619.728 425.323 619.706 425.266 619.699C425.208 619.692 425.149 619.7 425.095 619.723C425.041 619.746 424.995 619.783 424.96 619.83L379.52 678.49C379.475 678.547 379.451 678.617 379.45 678.69L379.49 764.95C379.49 765.037 379.455 765.121 379.393 765.183C379.332 765.245 379.248 765.28 379.16 765.28H290.95C290.863 765.28 290.779 765.245 290.717 765.183C290.655 765.121 290.62 765.037 290.62 764.95V411.08C290.62 410.992 290.655 410.909 290.717 410.847C290.779 410.785 290.863 410.75 290.95 410.75H379.14C379.228 410.75 379.312 410.785 379.373 410.847C379.435 410.909 379.47 410.992 379.47 411.08L379.44 543.61C379.44 543.68 379.462 543.748 379.504 543.805C379.545 543.862 379.604 543.904 379.67 543.925C379.737 543.946 379.809 543.945 379.876 543.923C379.942 543.9 380 543.857 380.04 543.8Z" fill="white"/>
<path d="M940.18 498.57V764.98C940.18 765.06 940.148 765.136 940.092 765.192C940.036 765.248 939.96 765.28 939.88 765.28H851.57C851.49 765.28 851.414 765.248 851.358 765.192C851.302 765.136 851.27 765.06 851.27 764.98L851.28 498.57C851.28 498.49 851.248 498.414 851.192 498.358C851.136 498.302 851.06 498.27 850.98 498.27H761.05C760.97 498.27 760.894 498.238 760.838 498.182C760.782 498.126 760.75 498.05 760.75 497.97V411.05C760.75 410.97 760.782 410.894 760.838 410.838C760.894 410.782 760.97 410.75 761.05 410.75H1030.41C1030.49 410.75 1030.57 410.782 1030.62 410.838C1030.68 410.894 1030.71 410.97 1030.71 411.05L1030.72 497.97C1030.72 498.05 1030.69 498.126 1030.63 498.182C1030.58 498.238 1030.5 498.27 1030.42 498.27H940.48C940.4 498.27 940.324 498.302 940.268 498.358C940.212 498.414 940.18 498.49 940.18 498.57Z" fill="white"/>
<path d="M716.91 522.73H628.39C628.241 522.73 628.12 522.851 628.12 523V765C628.12 765.149 628.241 765.27 628.39 765.27H716.91C717.059 765.27 717.18 765.149 717.18 765V523C717.18 522.851 717.059 522.73 716.91 522.73Z" fill="white"/>
</g>
<defs>
<clipPath id="clip0_15106_95">
<rect width="1031" height="766" fill="white"/>
</clipPath>
</defs>
</svg>
