<svg width="1032" height="766" viewBox="0 0 1032 766" fill="none" xmlns="http://www.w3.org/2000/svg">
<g clip-path="url(#clip0_15106_100)">
<path d="M85.2902 160.98V354.36C85.2902 354.466 85.2481 354.568 85.1731 354.643C85.0981 354.718 84.9963 354.76 84.8902 354.76H2.25023C1.91023 354.76 1.74023 354.59 1.74023 354.25V0.77002C1.74023 0.443353 1.90356 0.280029 2.23022 0.280029H84.1702C84.5036 0.280029 84.7502 0.426698 84.9102 0.720032L192.53 195.63C192.554 195.671 192.591 195.703 192.634 195.722C192.678 195.741 192.726 195.745 192.773 195.733C192.819 195.722 192.86 195.696 192.89 195.66C192.92 195.623 192.938 195.577 192.94 195.53V0.790039C192.94 0.450039 193.11 0.280029 193.45 0.280029H276.12C276.514 0.280029 276.71 0.476692 276.71 0.870026V354.27C276.71 354.4 276.659 354.525 276.567 354.616C276.475 354.708 276.35 354.76 276.22 354.76H193.52C193.329 354.76 193.141 354.709 192.976 354.612C192.811 354.516 192.674 354.377 192.58 354.21L85.6402 160.89C85.6187 160.856 85.587 160.83 85.5497 160.815C85.5124 160.8 85.4714 160.798 85.4325 160.808C85.3937 160.818 85.359 160.84 85.3334 160.871C85.3079 160.902 85.2927 160.94 85.2902 160.98Z" fill="black"/>
<path d="M425.24 210.46V354.34C425.24 354.451 425.196 354.558 425.117 354.637C425.038 354.716 424.932 354.76 424.82 354.76H336.37C336.259 354.76 336.152 354.716 336.073 354.637C335.994 354.558 335.95 354.451 335.95 354.34V0.700043C335.95 0.588652 335.994 0.481811 336.073 0.403046C336.152 0.32428 336.259 0.280029 336.37 0.280029H555.21C555.322 0.280029 555.428 0.32428 555.507 0.403046C555.586 0.481811 555.63 0.588652 555.63 0.700043V76.14C555.63 76.2514 555.586 76.3582 555.507 76.437C555.428 76.5158 555.322 76.56 555.21 76.56L425.66 76.55C425.605 76.55 425.55 76.5609 425.499 76.582C425.448 76.6031 425.402 76.634 425.363 76.673C425.324 76.712 425.293 76.7583 425.272 76.8093C425.251 76.8603 425.24 76.9149 425.24 76.97V138.01C425.24 138.121 425.284 138.228 425.363 138.307C425.442 138.386 425.549 138.43 425.66 138.43H536.22C536.332 138.43 536.438 138.474 536.517 138.553C536.596 138.632 536.64 138.739 536.64 138.85L536.62 209.62C536.62 209.731 536.576 209.838 536.497 209.917C536.418 209.996 536.312 210.04 536.2 210.04H425.66C425.549 210.04 425.442 210.084 425.363 210.163C425.284 210.242 425.24 210.349 425.24 210.46Z" fill="black"/>
<path d="M762.701 88.42V354.36C762.701 354.466 762.658 354.568 762.583 354.643C762.508 354.718 762.407 354.76 762.3 354.76H674.17C674.064 354.76 673.963 354.718 673.888 354.643C673.813 354.568 673.771 354.466 673.771 354.36V88.42C673.771 88.3675 673.76 88.3155 673.74 88.267C673.72 88.2184 673.69 88.1743 673.653 88.1372C673.616 88.1 673.572 88.0706 673.524 88.0505C673.475 88.0304 673.423 88.02 673.37 88.02H583.63C583.524 88.02 583.423 87.9779 583.348 87.9029C583.273 87.8279 583.23 87.7261 583.23 87.62V0.680023C583.23 0.573937 583.273 0.472201 583.348 0.397186C583.423 0.322172 583.524 0.280029 583.63 0.280029H852.86C852.967 0.280029 853.068 0.322172 853.143 0.397186C853.218 0.472201 853.26 0.573937 853.26 0.680023V87.62C853.26 87.7261 853.218 87.8279 853.143 87.9029C853.068 87.9779 852.967 88.02 852.86 88.02H763.1C763.048 88.02 762.996 88.0304 762.947 88.0505C762.899 88.0706 762.855 88.1 762.818 88.1372C762.78 88.1743 762.751 88.2184 762.731 88.267C762.711 88.3155 762.701 88.3675 762.701 88.42Z" fill="black"/>
<path d="M985.75 0.22998H897.13C896.987 0.22998 896.87 0.346366 896.87 0.48996V87.25C896.87 87.3936 896.987 87.51 897.13 87.51H985.75C985.894 87.51 986.01 87.3936 986.01 87.25V0.48996C986.01 0.346366 985.894 0.22998 985.75 0.22998Z" fill="black"/>
<path d="M985.449 113.36H897.53C897.204 113.36 896.939 113.624 896.939 113.95V354.17C896.939 354.496 897.204 354.76 897.53 354.76H985.449C985.775 354.76 986.04 354.496 986.04 354.17V113.95C986.04 113.624 985.775 113.36 985.449 113.36Z" fill="black"/>
<path d="M717.94 410.59H629.28C629.136 410.59 629.02 410.706 629.02 410.85V496.79C629.02 496.934 629.136 497.05 629.28 497.05H717.94C718.083 497.05 718.2 496.934 718.2 496.79V410.85C718.2 410.706 718.083 410.59 717.94 410.59Z" fill="black"/>
<path d="M90.06 486.8L90.0499 684.49C90.0499 684.58 90.0858 684.667 90.1496 684.73C90.2133 684.794 90.2998 684.83 90.39 684.83H243.01C243.1 684.83 243.187 684.866 243.25 684.93C243.314 684.993 243.35 685.08 243.35 685.17V764.98C243.35 765.07 243.314 765.157 243.25 765.22C243.187 765.284 243.1 765.32 243.01 765.32H1.29996C1.20978 765.32 1.1233 765.284 1.05954 765.22C0.995777 765.157 0.959961 765.07 0.959961 764.98V411.1C0.959961 411.01 0.995777 410.923 1.05954 410.86C1.1233 410.796 1.20978 410.76 1.29996 410.76H238.72C238.81 410.76 238.897 410.796 238.96 410.86C239.024 410.923 239.06 411.01 239.06 411.1L239.07 486.12C239.07 486.21 239.034 486.297 238.97 486.36C238.907 486.424 238.82 486.46 238.73 486.46H90.3999C90.3098 486.46 90.2233 486.496 90.1595 486.56C90.0958 486.623 90.06 486.71 90.06 486.8Z" fill="black"/>
<path d="M381.03 543.76L473.45 410.89C473.478 410.85 473.516 410.818 473.559 410.795C473.602 410.772 473.651 410.76 473.7 410.76L591.04 410.75C591.098 410.749 591.155 410.765 591.205 410.795C591.255 410.825 591.296 410.869 591.322 410.921C591.348 410.974 591.359 411.032 591.353 411.09C591.347 411.149 591.325 411.204 591.29 411.25L487.06 544.3C487.024 544.347 487.002 544.402 486.997 544.461C486.991 544.519 487.003 544.578 487.03 544.63L596.23 764.87C596.254 764.918 596.265 764.97 596.263 765.024C596.26 765.077 596.244 765.129 596.216 765.174C596.188 765.219 596.149 765.256 596.102 765.282C596.055 765.307 596.003 765.321 595.95 765.32H487.14C487.078 765.321 487.017 765.303 486.966 765.269C486.914 765.235 486.873 765.187 486.85 765.13L426.5 619.94C426.479 619.89 426.445 619.847 426.402 619.814C426.359 619.781 426.308 619.76 426.255 619.753C426.201 619.746 426.147 619.753 426.097 619.774C426.047 619.794 426.003 619.827 425.97 619.87L380.53 678.52C380.489 678.575 380.468 678.642 380.47 678.71V765.01C380.47 765.092 380.437 765.171 380.379 765.229C380.321 765.287 380.242 765.32 380.16 765.32H291.87C291.787 765.32 291.708 765.287 291.65 765.229C291.592 765.171 291.56 765.092 291.56 765.01L291.57 411.08C291.57 411.039 291.578 410.999 291.593 410.961C291.609 410.924 291.632 410.89 291.66 410.861C291.689 410.832 291.723 410.809 291.761 410.794C291.799 410.778 291.839 410.77 291.88 410.77L380.16 410.75C380.242 410.75 380.321 410.783 380.379 410.841C380.437 410.899 380.47 410.978 380.47 411.06V543.58C380.47 543.645 380.491 543.708 380.53 543.761C380.569 543.813 380.623 543.852 380.685 543.872C380.747 543.892 380.813 543.892 380.875 543.872C380.937 543.852 380.991 543.813 381.03 543.76Z" fill="black"/>
<path d="M941.21 498.64V764.99C941.21 765.078 941.176 765.161 941.114 765.223C941.052 765.285 940.968 765.32 940.88 765.32H852.61C852.523 765.32 852.439 765.285 852.377 765.223C852.315 765.161 852.28 765.078 852.28 764.99L852.29 498.64C852.29 498.552 852.255 498.469 852.194 498.407C852.132 498.345 852.048 498.31 851.96 498.31H762.07C761.983 498.31 761.899 498.275 761.837 498.213C761.775 498.151 761.74 498.068 761.74 497.98V411.1C761.74 411.012 761.775 410.929 761.837 410.867C761.899 410.805 761.983 410.77 762.07 410.77L1031.4 410.76C1031.49 410.76 1031.57 410.795 1031.63 410.857C1031.7 410.919 1031.73 411.003 1031.73 411.09V497.98C1031.73 498.068 1031.7 498.151 1031.63 498.213C1031.57 498.275 1031.49 498.31 1031.4 498.31H941.54C941.453 498.31 941.369 498.345 941.307 498.407C941.245 498.469 941.21 498.552 941.21 498.64Z" fill="black"/>
<path d="M717.82 522.66H629.5C629.279 522.66 629.1 522.839 629.1 523.06V764.92C629.1 765.141 629.279 765.32 629.5 765.32H717.82C718.041 765.32 718.22 765.141 718.22 764.92V523.06C718.22 522.839 718.041 522.66 717.82 522.66Z" fill="black"/>
</g>
<defs>
<clipPath id="clip0_15106_100">
<rect width="1032" height="766" fill="white"/>
</clipPath>
</defs>
</svg>
